  0
SECTION
  2
HEADER
  9
$ACADVER
  1
AC1027
  9
$ACADMAINTVER
 70
105
  9
$DWGCODEPAGE
  3
ANSI_1252
  9
$LASTSAVEDBY
  1
ezdxf
  9
$REQUIREDVERSIONS
160
0
  9
$INSBASE
 10
0.0
 20
0.0
 30
0.0
  9
$EXTMIN
 10
1e+20
 20
1e+20
 30
1e+20
  9
$EXTMAX
 10
-1e+20
 20
-1e+20
 30
-1e+20
  9
$LIMMIN
 10
0.0
 20
0.0
  9
$LIMMAX
 10
420.0
 20
297.0
  9
$ORTHOMODE
 70
0
  9
$REGENMODE
 70
1
  9
$FILLMODE
 70
1
  9
$QTEXTMODE
 70
0
  9
$MIRRTEXT
 70
1
  9
$LTSCALE
 40
1.0
  9
$ATTMODE
 70
1
  9
$TEXTSIZE
 40
2.5
  9
$TRACEWID
 40
1.0
  9
$TEXTSTYLE
  7
OpenSans
  9
$CLAYER
  8
0
  9
$CELTYPE
  6
ByLayer
  9
$CECOLOR
 62
256
  9
$CELTSCALE
 40
1.0
  9
$DISPSILH
 70
0
  9
$DIMSCALE
 40
1.0
  9
$DIMASZ
 40
0.175
  9
$DIMEXO
 40
0.125
  9
$DIMDLI
 40
3.75
  9
$DIMRND
 40
0.0
  9
$DIMDLE
 40
0.0
  9
$DIMEXE
 40
0.375
  9
$DIMTP
 40
0.0
  9
$DIMTM
 40
0.0
  9
$DIMTXT
 40
0.25
  9
$DIMCEN
 40
2.5
  9
$DIMTSZ
 40
0.0
  9
$DIMTOL
 70
0
  9
$DIMLIM
 70
0
  9
$DIMTIH
 70
0
  9
$DIMTOH
 70
0
  9
$DIMSE1
 70
0
  9
$DIMSE2
 70
0
  9
$DIMTAD
 70
1
  9
$DIMZIN
 70
12
  9
$DIMBLK
  1
ARCHTICK
  9
$DIMASO
 70
1
  9
$DIMSHO
 70
1
  9
$DIMPOST
  1

  9
$DIMAPOST
  1

  9
$DIMALT
 70
0
  9
$DIMALTD
 70
3
  9
$DIMALTF
 40
0.03937007874
  9
$DIMLFAC
 40
100.0
  9
$DIMTOFL
 70
1
  9
$DIMTVP
 40
0.0
  9
$DIMTIX
 70
0
  9
$DIMSOXD
 70
0
  9
$DIMSAH
 70
0
  9
$DIMBLK1
  1

  9
$DIMBLK2
  1

  9
$DIMSTYLE
  2
EZDXF
  9
$DIMCLRD
 70
0
  9
$DIMCLRE
 70
0
  9
$DIMCLRT
 70
0
  9
$DIMTFAC
 40
0.5
  9
$DIMGAP
 40
0.1
  9
$DIMJUST
 70
0
  9
$DIMSD1
 70
0
  9
$DIMSD2
 70
0
  9
$DIMTOLJ
 70
0
  9
$DIMTZIN
 70
8
  9
$DIMALTZ
 70
0
  9
$DIMALTTZ
 70
0
  9
$DIMUPT
 70
1
  9
$DIMDEC
 70
2
  9
$DIMTDEC
 70
2
  9
$DIMALTU
 70
2
  9
$DIMALTTD
 70
3
  9
$DIMTXSTY
  7
OpenSansCondensed-Light
  9
$DIMAUNIT
 70
0
  9
$DIMADEC
 70
2
  9
$DIMALTRND
 40
0.0
  9
$DIMAZIN
 70
3
  9
$DIMDSEP
 70
46
  9
$DIMATFIT
 70
3
  9
$DIMFRAC
 70
0
  9
$DIMLDRBLK
  1

  9
$DIMLUNIT
 70
2
  9
$DIMLWD
 70
-2
  9
$DIMLWE
 70
-2
  9
$DIMTMOVE
 70
2
  9
$DIMFXL
 40
1.0
  9
$DIMFXLON
 70
0
  9
$DIMJOGANG
 40
0.785398163397
  9
$DIMTFILL
 70
0
  9
$DIMTFILLCLR
 70
0
  9
$DIMARCSYM
 70
0
  9
$DIMLTYPE
  6

  9
$DIMLTEX1
  6

  9
$DIMLTEX2
  6

  9
$DIMTXTDIRECTION
 70
0
  9
$LUNITS
 70
2
  9
$LUPREC
 70
4
  9
$SKETCHINC
 40
1.0
  9
$FILLETRAD
 40
10.0
  9
$AUNITS
 70
0
  9
$AUPREC
 70
2
  9
$MENU
  1
.
  9
$ELEVATION
 40
0.0
  9
$PELEVATION
 40
0.0
  9
$THICKNESS
 40
0.0
  9
$LIMCHECK
 70
0
  9
$CHAMFERA
 40
0.0
  9
$CHAMFERB
 40
0.0
  9
$CHAMFERC
 40
0.0
  9
$CHAMFERD
 40
0.0
  9
$SKPOLY
 70
0
  9
$TDCREATE
 40
2461286.811388889
  9
$TDUCREATE
 40
2458532.153996898
  9
$TDUPDATE
 40
2461286.811388889
  9
$TDUUPDATE
 40
2458532.1544311
  9
$TDINDWG
 40
0.0
  9
$TDUSRTIMER
 40
0.0
  9
$USRTIMER
 70
1
  9
$ANGBASE
 50
0.0
  9
$ANGDIR
 70
0
  9
$PDMODE
 70
0
  9
$PDSIZE
 40
0.0
  9
$PLINEWID
 40
0.0
  9
$SPLFRAME
 70
0
  9
$SPLINETYPE
 70
6
  9
$SPLINESEGS
 70
8
  9
$HANDSEED
  5
196
  9
$SURFTAB1
 70
6
  9
$SURFTAB2
 70
6
  9
$SURFTYPE
 70
6
  9
$SURFU
 70
6
  9
$SURFV
 70
6
  9
$UCSBASE
  2

  9
$UCSNAME
  2

  9
$UCSORG
 10
0.0
 20
0.0
 30
0.0
  9
$UCSXDIR
 10
1.0
 20
0.0
 30
0.0
  9
$UCSYDIR
 10
0.0
 20
1.0
 30
0.0
  9
$UCSORTHOREF
  2

  9
$UCSORTHOVIEW
 70
0
  9
$UCSORGTOP
 10
0.0
 20
0.0
 30
0.0
  9
$UCSORGBOTTOM
 10
0.0
 20
0.0
 30
0.0
  9
$UCSORGLEFT
 10
0.0
 20
0.0
 30
0.0
  9
$UCSORGRIGHT
 10
0.0
 20
0.0
 30
0.0
  9
$UCSORGFRONT
 10
0.0
 20
0.0
 30
0.0
  9
$UCSORGBACK
 10
0.0
 20
0.0
 30
0.0
  9
$PUCSBASE
  2

  9
$PUCSNAME
  2

  9
$PUCSORG
 10
0.0
 20
0.0
 30
0.0
  9
$PUCSXDIR
 10
1.0
 20
0.0
 30
0.0
  9
$PUCSYDIR
 10
0.0
 20
1.0
 30
0.0
  9
$PUCSORTHOREF
  2

  9
$PUCSORTHOVIEW
 70
0
  9
$PUCSORGTOP
 10
0.0
 20
0.0
 30
0.0
  9
$PUCSORGBOTTOM
 10
0.0
 20
0.0
 30
0.0
  9
$PUCSORGLEFT
 10
0.0
 20
0.0
 30
0.0
  9
$PUCSORGRIGHT
 10
0.0
 20
0.0
 30
0.0
  9
$PUCSORGFRONT
 10
0.0
 20
0.0
 30
0.0
  9
$PUCSORGBACK
 10
0.0
 20
0.0
 30
0.0
  9
$USERI1
 70
0
  9
$USERI2
 70
0
  9
$USERI3
 70
0
  9
$USERI4
 70
0
  9
$USERI5
 70
0
  9
$USERR1
 40
0.0
  9
$USERR2
 40
0.0
  9
$USERR3
 40
0.0
  9
$USERR4
 40
0.0
  9
$USERR5
 40
0.0
  9
$WORLDVIEW
 70
1
  9
$SHADEDGE
 70
3
  9
$SHADEDIF
 70
70
  9
$TILEMODE
 70
1
  9
$MAXACTVP
 70
64
  9
$PINSBASE
 10
0.0
 20
0.0
 30
0.0
  9
$PLIMCHECK
 70
0
  9
$PEXTMIN
 10
1e+20
 20
1e+20
 30
1e+20
  9
$PEXTMAX
 10
-1e+20
 20
-1e+20
 30
-1e+20
  9
$PLIMMIN
 10
0.0
 20
0.0
  9
$PLIMMAX
 10
420.0
 20
297.0
  9
$UNITMODE
 70
0
  9
$VISRETAIN
 70
1
  9
$PLINEGEN
 70
0
  9
$PSLTSCALE
 70
1
  9
$TREEDEPTH
 70
3020
  9
$CMLSTYLE
  2
Standard
  9
$CMLJUST
 70
0
  9
$CMLSCALE
 40
20.0
  9
$PROXYGRAPHICS
 70
1
  9
$MEASUREMENT
 70
1
  9
$CELWEIGHT
370
-1
  9
$ENDCAPS
280
0
  9
$JOINSTYLE
280
0
  9
$LWDISPLAY
290
0
  9
$INSUNITS
 70
4
  9
$HYPERLINKBASE
  1

  9
$STYLESHEET
  1

  9
$XEDIT
290
1
  9
$CEPSNTYPE
380
0
  9
$PSTYLEMODE
290
1
  9
$FINGERPRINTGUID
  2
{024C6D4F-0713-4768-A35B-AC4BFBEA5AA1}
  9
$VERSIONGUID
  2
{45CBB200-6EE8-4C46-A7A2-015B8AA20C25}
  9
$EXTNAMES
290
1
  9
$PSVPSCALE
 40
0.0
  9
$OLESTARTUP
290
0
  9
$SORTENTS
280
127
  9
$INDEXCTL
280
0
  9
$HIDETEXT
280
1
  9
$XCLIPFRAME
280
1
  9
$HALOGAP
280
0
  9
$OBSCOLOR
 70
257
  9
$OBSLTYPE
280
0
  9
$INTERSECTIONDISPLAY
280
0
  9
$INTERSECTIONCOLOR
 70
257
  9
$DIMASSOC
280
2
  9
$PROJECTNAME
  1

  9
$CAMERADISPLAY
290
0
  9
$LENSLENGTH
 40
50.0
  9
$CAMERAHEIGHT
 40
0.0
  9
$STEPSPERSEC
 40
24.0
  9
$STEPSIZE
 40
100.0
  9
$3DDWFPREC
 40
2.0
  9
$PSOLWIDTH
 40
0.005
  9
$PSOLHEIGHT
 40
0.08
  9
$LOFTANG1
 40
1.570796326795
  9
$LOFTANG2
 40
1.570796326795
  9
$LOFTMAG1
 40
0.0
  9
$LOFTMAG2
 40
0.0
  9
$LOFTPARAM
 70
7
  9
$LOFTNORMALS
280
1
  9
$LATITUDE
 40
37.795
  9
$LONGITUDE
 40
-122.394
  9
$NORTHDIRECTION
 40
0.0
  9
$TIMEZONE
 70
-8000
  9
$LIGHTGLYPHDISPLAY
280
1
  9
$TILEMODELIGHTSYNCH
280
1
  9
$CMATERIAL
347
20
  9
$SOLIDHIST
280
0
  9
$SHOWHIST
280
1
  9
$DWFFRAME
280
2
  9
$DGNFRAME
280
2
  9
$REALWORLDSCALE
290
1
  9
$INTERFERECOLOR
 62
256
  9
$CSHADOW
280
0
  9
$SHADOWPLANELOCATION
 40
0.0
  0
ENDSEC
  0
SECTION
  2
CLASSES
  0
CLASS
  1
ACDBDICTIONARYWDFLT
  2
AcDbDictionaryWithDefault
  3
ObjectDBX Classes
 90
0
 91
0
280
0
281
0
  0
CLASS
  1
SUN
  2
AcDbSun
  3
SCENEOE
 90
1153
 91
0
280
0
281
0
  0
CLASS
  1
VISUALSTYLE
  2
AcDbVisualStyle
  3
ObjectDBX Classes
 90
4095
 91
0
280
0
281
0
  0
CLASS
  1
MATERIAL
  2
AcDbMaterial
  3
ObjectDBX Classes
 90
1153
 91
0
280
0
281
0
  0
CLASS
  1
SCALE
  2
AcDbScale
  3
ObjectDBX Classes
 90
1153
 91
0
280
0
281
0
  0
CLASS
  1
TABLESTYLE
  2
AcDbTableStyle
  3
ObjectDBX Classes
 90
4095
 91
0
280
0
281
0
  0
CLASS
  1
MLEADERSTYLE
  2
AcDbMLeaderStyle
  3
ACDB_MLEADERSTYLE_CLASS
 90
4095
 91
0
280
0
281
0
  0
CLASS
  1
DICTIONARYVAR
  2
AcDbDictionaryVar
  3
ObjectDBX Classes
 90
0
 91
0
280
0
281
0
  0
CLASS
  1
CELLSTYLEMAP
  2
AcDbCellStyleMap
  3
ObjectDBX Classes
 90
1152
 91
0
280
0
281
0
  0
CLASS
  1
MENTALRAYRENDERSETTINGS
  2
AcDbMentalRayRenderSettings
  3
SCENEOE
 90
1024
 91
0
280
0
281
0
  0
CLASS
  1
ACDBDETAILVIEWSTYLE
  2
AcDbDetailViewStyle
  3
ObjectDBX Classes
 90
1025
 91
0
280
0
281
0
  0
CLASS
  1
ACDBSECTIONVIEWSTYLE
  2
AcDbSectionViewStyle
  3
ObjectDBX Classes
 90
1025
 91
0
280
0
281
0
  0
CLASS
  1
RASTERVARIABLES
  2
AcDbRasterVariables
  3
ISM
 90
0
 91
0
280
0
281
0
  0
CLASS
  1
LAYOUT
  2
AcDbLayout
  3
ObjectDBX Classes
 90
0
 91
0
280
0
281
0
  0
CLASS
  1
ACDBPLACEHOLDER
  2
AcDbPlaceHolder
  3
ObjectDBX Classes
 90
0
 91
0
280
0
281
0
  0
ENDSEC
  0
SECTION
  2
TABLES
  0
TABLE
  2
VPORT
  5
8
330
0
100
AcDbSymbolTable
 70
1
  0
VPORT
  5
23
330
8
100
AcDbSymbolTableRecord
100
AcDbViewportTableRecord
  2
*Active
 70
0
 10
0.0
 20
0.0
 11
1.0
 21
1.0
 12
0.0
 22
0.0
 13
0.0
 23
0.0
 14
0.5
 24
0.5
 15
0.5
 25
0.5
 16
0.0
 26
0.0
 36
1.0
 17
0.0
 27
0.0
 37
0.0
 40
1000.0
 41
1.34
 42
50.0
 43
0.0
 44
0.0
 50
0.0
 51
0.0
 71
0
 72
1000
 73
1
 74
3
 75
0
 76
0
 77
0
 78
0
281
0
 65
0
146
0.0
  0
ENDTAB
  0
TABLE
  2
LTYPE
  5
2
330
0
100
AcDbSymbolTable
 70
21
  0
LTYPE
  5
24
330
2
100
AcDbSymbolTableRecord
100
AcDbLinetypeTableRecord
  2
ByBlock
 70
0
  3

 72
65
 73
0
 40
0.0
  0
LTYPE
  5
25
330
2
100
AcDbSymbolTableRecord
100
AcDbLinetypeTableRecord
  2
ByLayer
 70
0
  3

 72
65
 73
0
 40
0.0
  0
LTYPE
  5
26
330
2
100
AcDbSymbolTableRecord
100
AcDbLinetypeTableRecord
  2
Continuous
 70
0
  3

 72
65
 73
0
 40
0.0
  0
LTYPE
  5
2F
330
2
100
AcDbSymbolTableRecord
100
AcDbLinetypeTableRecord
  2
CENTER
 70
0
  3
Center ____ _ ____ _ ____ _ ____ _ ____ _ ____
 72
65
 73
4
 40
5.08
 49
3.175
 74
0
 49
-0.635
 74
0
 49
0.635
 74
0
 49
-0.635
 74
0
  0
LTYPE
  5
30
330
2
100
AcDbSymbolTableRecord
100
AcDbLinetypeTableRecord
  2
CENTERX2
 70
0
  3
Center (2x) ________  __  ________  __  ________
 72
65
 73
4
 40
8.89
 49
6.35
 74
0
 49
-0.635
 74
0
 49
1.27
 74
0
 49
-0.635
 74
0
  0
LTYPE
  5
31
330
2
100
AcDbSymbolTableRecord
100
AcDbLinetypeTableRecord
  2
CENTER2
 70
0
  3
Center (.5x) ____ _ ____ _ ____ _ ____ _ ____
 72
65
 73
4
 40
2.54
 49
1.587
 74
0
 49
-0.318
 74
0
 49
0.318
 74
0
 49
-0.318
 74
0
  0
LTYPE
  5
32
330
2
100
AcDbSymbolTableRecord
100
AcDbLinetypeTableRecord
  2
DASHED
 70
0
  3
Dashed __ __ __ __ __ __ __ __ __ __ __ __ __ _
 72
65
 73
2
 40
1.524
 49
1.27
 74
0
 49
-0.254
 74
0
  0
LTYPE
  5
33
330
2
100
AcDbSymbolTableRecord
100
AcDbLinetypeTableRecord
  2
DASHEDX2
 70
0
  3
Dashed (2x) ____  ____  ____  ____  ____  ____
 72
65
 73
2
 40
3.048
 49
2.54
 74
0
 49
-0.508
 74
0
  0
LTYPE
  5
34
330
2
100
AcDbSymbolTableRecord
100
AcDbLinetypeTableRecord
  2
DASHED2
 70
0
  3
Dashed (.5x) _ _ _ _ _ _ _ _ _ _ _ _ _ _
 72
65
 73
2
 40
0.762
 49
0.635
 74
0
 49
-0.127
 74
0
  0
LTYPE
  5
35
330
2
100
AcDbSymbolTableRecord
100
AcDbLinetypeTableRecord
  2
PHANTOM
 70
0
  3
Phantom ______  __  __  ______  __  __  ______
 72
65
 73
6
 40
6.35
 49
3.175
 74
0
 49
-0.635
 74
0
 49
0.635
 74
0
 49
-0.635
 74
0
 49
0.635
 74
0
 49
-0.635
 74
0
  0
LTYPE
  5
36
330
2
100
AcDbSymbolTableRecord
100
AcDbLinetypeTableRecord
  2
PHANTOMX2
 70
0
  3
Phantom (2x)____________    ____    ____    ____________
 72
65
 73
6
 40
10.795
 49
6.35
 74
0
 49
-0.635
 74
0
 49
1.27
 74
0
 49
-0.635
 74
0
 49
1.27
 74
0
 49
-0.635
 74
0
  0
LTYPE
  5
37
330
2
100
AcDbSymbolTableRecord
100
AcDbLinetypeTableRecord
  2
PHANTOM2
 70
0
  3
Phantom (.5x) ___ _ _ ___ _ _ ___ _ _ ___ _ _ ___
 72
65
 73
6
 40
3.175
 49
1.587
 74
0
 49
-0.318
 74
0
 49
0.318
 74
0
 49
-0.318
 74
0
 49
0.318
 74
0
 49
-0.318
 74
0
  0
LTYPE
  5
38
330
2
100
AcDbSymbolTableRecord
100
AcDbLinetypeTableRecord
  2
DASHDOT
 70
0
  3
Dash dot __ . __ . __ . __ . __ . __ . __ . __
 72
65
 73
4
 40
3.556
 49
2.54
 74
0
 49
-0.508
 74
0
 49
0.0
 74
0
 49
-0.508
 74
0
  0
LTYPE
  5
39
330
2
100
AcDbSymbolTableRecord
100
AcDbLinetypeTableRecord
  2
DASHDOTX2
 70
0
  3
Dash dot (2x) ____  .  ____  .  ____  .  ____
 72
65
 73
4
 40
6.096
 49
5.08
 74
0
 49
-0.508
 74
0
 49
0.0
 74
0
 49
-0.508
 74
0
  0
LTYPE
  5
3A
330
2
100
AcDbSymbolTableRecord
100
AcDbLinetypeTableRecord
  2
DASHDOT2
 70
0
  3
Dash dot (.5x) _ . _ . _ . _ . _ . _ . _ . _
 72
65
 73
4
 40
1.778
 49
1.27
 74
0
 49
-0.254
 74
0
 49
0.0
 74
0
 49
-0.254
 74
0
  0
LTYPE
  5
3B
330
2
100
AcDbSymbolTableRecord
100
AcDbLinetypeTableRecord
  2
DOT
 70
0
  3
Dot .  .  .  .  .  .  .  .  .  .  .  .  .  .  .  .
 72
65
 73
2
 40
0.508
 49
0.0
 74
0
 49
-0.508
 74
0
  0
LTYPE
  5
3C
330
2
100
AcDbSymbolTableRecord
100
AcDbLinetypeTableRecord
  2
DOTX2
 70
0
  3
Dot (2x) .    .    .    .    .    .    .    . 
 72
65
 73
2
 40
1.016
 49
0.0
 74
0
 49
-1.016
 74
0
  0
LTYPE
  5
3D
330
2
100
AcDbSymbolTableRecord
100
AcDbLinetypeTableRecord
  2
DOT2
 70
0
  3
Dot (.5) . . . . . . . . . . . . . . . . . . . 
 72
65
 73
2
 40
0.254
 49
0.0
 74
0
 49
-0.254
 74
0
  0
LTYPE
  5
3E
330
2
100
AcDbSymbolTableRecord
100
AcDbLinetypeTableRecord
  2
DIVIDE
 70
0
  3
Divide __ . . __ . . __ . . __ . . __ . . __
 72
65
 73
6
 40
4.064
 49
2.54
 74
0
 49
-0.508
 74
0
 49
0.0
 74
0
 49
-0.508
 74
0
 49
0.0
 74
0
 49
-0.508
 74
0
  0
LTYPE
  5
3F
330
2
100
AcDbSymbolTableRecord
100
AcDbLinetypeTableRecord
  2
DIVIDEX2
 70
0
  3
Divide (2x) ____  . .  ____  . .  ____  . .  ____
 72
65
 73
6
 40
6.604
 49
5.08
 74
0
 49
-0.508
 74
0
 49
0.0
 74
0
 49
-0.508
 74
0
 49
0.0
 74
0
 49
-0.508
 74
0
  0
LTYPE
  5
40
330
2
100
AcDbSymbolTableRecord
100
AcDbLinetypeTableRecord
  2
DIVIDE2
 70
0
  3
Divide(.5x) _ . _ . _ . _ . _ . _ . _ . _
 72
65
 73
6
 40
2.032
 49
1.27
 74
0
 49
-0.254
 74
0
 49
0.0
 74
0
 49
-0.254
 74
0
 49
0.0
 74
0
 49
-0.254
 74
0
  0
ENDTAB
  0
TABLE
  2
LAYER
  5
1
330
0
100
AcDbSymbolTable
 70
6
  0
LAYER
  5
27
330
1
100
AcDbSymbolTableRecord
100
AcDbLayerTableRecord
  2
0
 70
0
 62
7
  6
Continuous
370
-3
390
13
347
21
  0
LAYER
  5
28
330
1
100
AcDbSymbolTableRecord
100
AcDbLayerTableRecord
  2
Defpoints
 70
0
 62
7
  6
Continuous
290
0
370
-3
390
13
347
21
  0
LAYER
  5
189
330
1
100
AcDbSymbolTableRecord
100
AcDbLayerTableRecord
  2
ÇERÇ
 70
0
 62
7
  6
Continuous
370
40
390
F
347
EE
348
0
  0
LAYER
  5
18A
330
1
100
AcDbSymbolTableRecord
100
AcDbLayerTableRecord
  2
YAZı
 70
0
 62
7
  6
Continuous
370
-3
390
F
347
EE
348
0
  0
LAYER
  5
18B
330
1
100
AcDbSymbolTableRecord
100
AcDbLayerTableRecord
  2
t-çap
 70
0
 62
7
  6
Continuous
370
25
390
F
347
EE
348
0
  0
LAYER
  5
18C
330
1
100
AcDbSymbolTableRecord
100
AcDbLayerTableRecord
  2
YAZı1
 70
0
 62
7
  6
Continuous
370
-3
390
F
347
EE
348
0
  0
ENDTAB
  0
TABLE
  2
STYLE
  5
5
330
0
100
AcDbSymbolTable
 70
32
  0
STYLE
  5
29
330
5
100
AcDbSymbolTableRecord
100
AcDbTextStyleTableRecord
  2
Standard
 70
0
 40
0.0
 41
1.0
 50
0.0
 71
0
 42
2.5
  3
txt
  4

  0
STYLE
  5
41
330
5
100
AcDbSymbolTableRecord
100
AcDbTextStyleTableRecord
  2
OpenSans-Light
 70
0
 40
0.0
 41
1.0
 50
0.0
 71
0
 42
2.5
  3
OpenSans-Light.ttf
  4

  0
STYLE
  5
42
330
5
100
AcDbSymbolTableRecord
100
AcDbTextStyleTableRecord
  2
OpenSans-Light-Italic
 70
0
 40
0.0
 41
1.0
 50
0.0
 71
0
 42
2.5
  3
OpenSans-LightItalic.ttf
  4

  0
STYLE
  5
43
330
5
100
AcDbSymbolTableRecord
100
AcDbTextStyleTableRecord
  2
OpenSans
 70
0
 40
0.0
 41
1.0
 50
0.0
 71
0
 42
2.5
  3
OpenSans-Regular.ttf
  4

  0
STYLE
  5
44
330
5
100
AcDbSymbolTableRecord
100
AcDbTextStyleTableRecord
  2
OpenSans-Italic
 70
0
 40
0.0
 41
1.0
 50
0.0
 71
0
 42
2.5
  3
OpenSans-Italic.ttf
  4

  0
STYLE
  5
45
330
5
100
AcDbSymbolTableRecord
100
AcDbTextStyleTableRecord
  2
OpenSans-SemiBold
 70
0
 40
0.0
 41
1.0
 50
0.0
 71
0
 42
2.5
  3
OpenSans-SemiBold.ttf
  4

  0
STYLE
  5
46
330
5
100
AcDbSymbolTableRecord
100
AcDbTextStyleTableRecord
  2
OpenSans-SemiBoldItalic
 70
0
 40
0.0
 41
1.0
 50
0.0
 71
0
 42
2.5
  3
OpenSans-SemiBoldItalic.ttf
  4

  0
STYLE
  5
47
330
5
100
AcDbSymbolTableRecord
100
AcDbTextStyleTableRecord
  2
OpenSans-Bold
 70
0
 40
0.0
 41
1.0
 50
0.0
 71
0
 42
2.5
  3
OpenSans-Bold.ttf
  4

  0
STYLE
  5
48
330
5
100
AcDbSymbolTableRecord
100
AcDbTextStyleTableRecord
  2
OpenSans-BoldItalic
 70
0
 40
0.0
 41
1.0
 50
0.0
 71
0
 42
2.5
  3
OpenSans-BoldItalic.ttf
  4

  0
STYLE
  5
49
330
5
100
AcDbSymbolTableRecord
100
AcDbTextStyleTableRecord
  2
OpenSans-ExtraBold
 70
0
 40
0.0
 41
1.0
 50
0.0
 71
0
 42
2.5
  3
OpenSans-ExtraBold.ttf
  4

  0
STYLE
  5
4A
330
5
100
AcDbSymbolTableRecord
100
AcDbTextStyleTableRecord
  2
OpenSans-ExtraBoldItalic
 70
0
 40
0.0
 41
1.0
 50
0.0
 71
0
 42
2.5
  3
OpenSans-ExtraBoldItalic.ttf
  4

  0
STYLE
  5
4B
330
5
100
AcDbSymbolTableRecord
100
AcDbTextStyleTableRecord
  2
OpenSansCondensed-Bold
 70
0
 40
0.0
 41
1.0
 50
0.0
 71
0
 42
2.5
  3
OpenSansCondensed-Bold.ttf
  4

  0
STYLE
  5
4C
330
5
100
AcDbSymbolTableRecord
100
AcDbTextStyleTableRecord
  2
OpenSansCondensed-Light
 70
0
 40
0.0
 41
1.0
 50
0.0
 71
0
 42
2.5
  3
OpenSansCondensed-Light.ttf
  4

  0
STYLE
  5
4D
330
5
100
AcDbSymbolTableRecord
100
AcDbTextStyleTableRecord
  2
OpenSansCondensed-Italic
 70
0
 40
0.0
 41
1.0
 50
0.0
 71
0
 42
2.5
  3
OpenSansCondensed-LightItalic.ttf
  4

  0
STYLE
  5
4E
330
5
100
AcDbSymbolTableRecord
100
AcDbTextStyleTableRecord
  2
LiberationSans
 70
0
 40
0.0
 41
1.0
 50
0.0
 71
0
 42
2.5
  3
LiberationSans-Regular.ttf
  4

  0
STYLE
  5
4F
330
5
100
AcDbSymbolTableRecord
100
AcDbTextStyleTableRecord
  2
LiberationSans-Bold
 70
0
 40
0.0
 41
1.0
 50
0.0
 71
0
 42
2.5
  3
LiberationSans-Bold.ttf
  4

  0
STYLE
  5
50
330
5
100
AcDbSymbolTableRecord
100
AcDbTextStyleTableRecord
  2
LiberationSans-BoldItalic
 70
0
 40
0.0
 41
1.0
 50
0.0
 71
0
 42
2.5
  3
LiberationSans-BoldItalic.ttf
  4

  0
STYLE
  5
51
330
5
100
AcDbSymbolTableRecord
100
AcDbTextStyleTableRecord
  2
LiberationSans-Italic
 70
0
 40
0.0
 41
1.0
 50
0.0
 71
0
 42
2.5
  3
LiberationSans-Italic.ttf
  4

  0
STYLE
  5
52
330
5
100
AcDbSymbolTableRecord
100
AcDbTextStyleTableRecord
  2
LiberationSerif
 70
0
 40
0.0
 41
1.0
 50
0.0
 71
0
 42
2.5
  3
LiberationSerif-Regular.ttf
  4

  0
STYLE
  5
53
330
5
100
AcDbSymbolTableRecord
100
AcDbTextStyleTableRecord
  2
LiberationSerif-Bold
 70
0
 40
0.0
 41
1.0
 50
0.0
 71
0
 42
2.5
  3
LiberationSerif-Bold.ttf
  4

  0
STYLE
  5
54
330
5
100
AcDbSymbolTableRecord
100
AcDbTextStyleTableRecord
  2
LiberationSerif-BoldItalic
 70
0
 40
0.0
 41
1.0
 50
0.0
 71
0
 42
2.5
  3
LiberationSerif-BoldItalic.ttf
  4

  0
STYLE
  5
55
330
5
100
AcDbSymbolTableRecord
100
AcDbTextStyleTableRecord
  2
LiberationSerif-Italic
 70
0
 40
0.0
 41
1.0
 50
0.0
 71
0
 42
2.5
  3
LiberationSerif-Italic.ttf
  4

  0
STYLE
  5
56
330
5
100
AcDbSymbolTableRecord
100
AcDbTextStyleTableRecord
  2
LiberationMono
 70
0
 40
0.0
 41
1.0
 50
0.0
 71
0
 42
2.5
  3
LiberationMono-Regular.ttf
  4

  0
STYLE
  5
57
330
5
100
AcDbSymbolTableRecord
100
AcDbTextStyleTableRecord
  2
LiberationMono-Bold
 70
0
 40
0.0
 41
1.0
 50
0.0
 71
0
 42
2.5
  3
LiberationMono-Bold.ttf
  4

  0
STYLE
  5
58
330
5
100
AcDbSymbolTableRecord
100
AcDbTextStyleTableRecord
  2
LiberationMono-BoldItalic
 70
0
 40
0.0
 41
1.0
 50
0.0
 71
0
 42
2.5
  3
LiberationMono-BoldItalic.ttf
  4

  0
STYLE
  5
59
330
5
100
AcDbSymbolTableRecord
100
AcDbTextStyleTableRecord
  2
LiberationMono-Italic
 70
0
 40
0.0
 41
1.0
 50
0.0
 71
0
 42
2.5
  3
LiberationMono-Italic.ttf
  4

  0
STYLE
  5
18D
330
5
100
AcDbSymbolTableRecord
100
AcDbTextStyleTableRecord
  2
ASL
 70
0
 40
0.0
 41
1.0
 50
0.0
 71
0
 42
25.0
  3
times.ttf
  4

  0
STYLE
  5
18E
330
5
100
AcDbSymbolTableRecord
100
AcDbTextStyleTableRecord
  2
1
 70
0
 40
0.0
 41
1.0
 50
0.0
 71
0
 42
0.2
  3
times.ttf
  4

  0
STYLE
  5
18F
330
5
100
AcDbSymbolTableRecord
100
AcDbTextStyleTableRecord
  2
ODA
 70
0
 40
0.0
 41
1.0
 50
0.0
 71
0
 42
32.52017340277053
  3
times.ttf
  4

  0
STYLE
  5
190
330
5
100
AcDbSymbolTableRecord
100
AcDbTextStyleTableRecord
  2
LD
 70
0
 40
0.0
 41
1.0
 50
0.0
 71
0
 42
6.0
  3
ARIALUNI.TTF
  4

  0
STYLE
  5
191
330
5
100
AcDbSymbolTableRecord
100
AcDbTextStyleTableRecord
  2
STYLE1
 70
0
 40
8.0
 41
1.0
 50
0.0
 71
0
 42
10.0
  3
times.ttf
  4

  0
STYLE
  5
192
330
5
100
AcDbSymbolTableRecord
100
AcDbTextStyleTableRecord
  2
dddddddddd
 70
0
 40
0.0
 41
1.0
 50
0.0
 71
0
 42
10.0
  3
arial.ttf
  4

  0
ENDTAB
  0
TABLE
  2
VIEW
  5
7
330
0
100
AcDbSymbolTable
 70
0
  0
ENDTAB
  0
TABLE
  2
UCS
  5
6
330
0
100
AcDbSymbolTable
 70
0
  0
ENDTAB
  0
TABLE
  2
APPID
  5
3
330
0
100
AcDbSymbolTable
 70
3
  0
APPID
  5
2A
330
3
100
AcDbSymbolTableRecord
100
AcDbRegAppTableRecord
  2
ACAD
 70
0
  0
APPID
  5
193
330
3
100
AcDbSymbolTableRecord
100
AcDbRegAppTableRecord
  2
HATCHBACKGROUNDCOLOR
 70
0
  0
APPID
  5
194
330
3
100
AcDbSymbolTableRecord
100
AcDbRegAppTableRecord
  2
EZDXF
 70
0
  0
ENDTAB
  0
TABLE
  2
DIMSTYLE
  5
4
330
0
100
AcDbSymbolTable
 70
12
100
AcDbDimStyleTable
  0
DIMSTYLE
105
2B
330
4
100
AcDbSymbolTableRecord
100
AcDbDimStyleTableRecord
  2
Standard
 70
0
 40
1.0
 41
2.5
 42
0.625
 43
3.75
 44
1.25
 45
0.0
 46
0.0
 47
0.0
 48
0.0
 49
2.5
140
2.5
141
2.5
142
0.0
143
0.03937007874
144
1.0
145
0.0
146
1.0
147
0.625
148
0.0
 69
0
 70
0
 71
0
 72
0
 73
0
 74
0
 75
0
 76
0
 77
1
 78
8
 79
3
170
0
171
3
172
1
173
0
174
0
175
0
176
0
177
0
178
0
179
2
271
2
272
2
273
2
274
3
275
0
276
0
277
2
278
44
279
0
280
0
281
0
282
0
283
0
284
8
285
0
286
0
288
0
289
3
290
0
371
-2
372
-2
  0
DIMSTYLE
105
73
330
4
100
AcDbSymbolTableRecord
100
AcDbDimStyleTableRecord
  2
EZDXF
 70
0
 40
1.0
 41
0.175
 42
0.125
 43
3.75
 44
0.375
 45
0.0
 46
0.0
 47
0.0
 48
0.0
 49
2.5
140
0.25
141
2.5
142
0.0
143
0.03937007874
144
100.0
145
0.0
146
0.5
147
0.1
148
0.0
 69
0
 70
0
 71
0
 72
0
 73
0
 74
0
 75
0
 76
0
 77
1
 78
12
 79
3
170
0
171
3
172
1
173
0
174
0
175
0
176
0
177
0
178
0
179
2
271
2
272
2
273
2
274
3
275
0
276
0
277
2
278
46
279
2
280
0
281
0
282
0
283
0
284
8
285
0
286
0
288
1
289
3
290
0
340
4C
342
74
371
-2
372
-2
  0
DIMSTYLE
105
7C
330
4
100
AcDbSymbolTableRecord
100
AcDbDimStyleTableRecord
  2
EZ_M_100_H25_CM
 70
0
 40
1.0
 41
0.25
 42
0.125
 43
3.75
 44
0.375
 45
0.0
 46
0.0
 47
0.0
 48
0.0
 49
2.5
140
0.25
141
2.5
142
0.125
143
0.03937007874
144
100.0
145
0.0
146
0.5
147
0.1
148
0.0
 69
0
 70
0
 71
0
 72
0
 73
0
 74
0
 75
0
 76
0
 77
1
 78
12
 79
3
170
0
171
3
172
1
173
0
174
0
175
0
176
0
177
0
178
0
179
2
271
2
272
2
273
2
274
3
275
0
276
0
277
2
278
46
279
2
280
0
281
0
282
0
283
0
284
8
285
0
286
0
288
1
289
3
290
0
340
4C
371
-2
372
-2
  0
DIMSTYLE
105
7D
330
4
100
AcDbSymbolTableRecord
100
AcDbDimStyleTableRecord
  2
EZ_M_50_H25_CM
 70
0
 40
1.0
 41
0.125
 42
0.0625
 43
3.75
 44
0.1875
 45
0.0
 46
0.0
 47
0.0
 48
0.0
 49
2.5
140
0.125
141
2.5
142
0.0625
143
0.03937007874
144
100.0
145
0.0
146
0.5
147
0.05
148
0.0
 69
0
 70
0
 71
0
 72
0
 73
0
 74
0
 75
0
 76
0
 77
1
 78
12
 79
3
170
0
171
3
172
1
173
0
174
0
175
0
176
0
177
0
178
0
179
2
271
2
272
2
273
2
274
3
275
0
276
0
277
2
278
46
279
2
280
0
281
0
282
0
283
0
284
8
285
0
286
0
288
1
289
3
290
0
340
4C
371
-2
372
-2
  0
DIMSTYLE
105
7E
330
4
100
AcDbSymbolTableRecord
100
AcDbDimStyleTableRecord
  2
EZ_M_25_H25_CM
 70
0
 40
1.0
 41
0.0625
 42
0.03125
 43
3.75
 44
0.09375
 45
0.0
 46
0.0
 47
0.0
 48
0.0
 49
2.5
140
0.0625
141
2.5
142
0.03125
143
0.03937007874
144
100.0
145
0.0
146
0.5
147
0.025
148
0.0
 69
0
 70
0
 71
0
 72
0
 73
0
 74
0
 75
0
 76
0
 77
1
 78
12
 79
3
170
0
171
3
172
1
173
0
174
0
175
0
176
0
177
0
178
0
179
2
271
2
272
2
273
2
274
3
275
0
276
0
277
2
278
46
279
2
280
0
281
0
282
0
283
0
284
8
285
0
286
0
288
1
289
3
290
0
340
4C
371
-2
372
-2
  0
DIMSTYLE
105
7F
330
4
100
AcDbSymbolTableRecord
100
AcDbDimStyleTableRecord
  2
EZ_M_20_H25_CM
 70
0
 40
1.0
 41
0.05
 42
0.025
 43
3.75
 44
0.07500000000000001
 45
0.0
 46
0.0
 47
0.0
 48
0.0
 49
2.5
140
0.05
141
2.5
142
0.025
143
0.03937007874
144
100.0
145
0.0
146
0.5
147
0.020000000000000004
148
0.0
 69
0
 70
0
 71
0
 72
0
 73
0
 74
0
 75
0
 76
0
 77
1
 78
12
 79
3
170
0
171
3
172
1
173
0
174
0
175
0
176
0
177
0
178
0
179
2
271
2
272
2
273
2
274
3
275
0
276
0
277
2
278
46
279
2
280
0
281
0
282
0
283
0
284
8
285
0
286
0
288
1
289
3
290
0
340
4C
371
-2
372
-2
  0
DIMSTYLE
105
80
330
4
100
AcDbSymbolTableRecord
100
AcDbDimStyleTableRecord
  2
EZ_M_10_H25_CM
 70
0
 40
1.0
 41
0.025
 42
0.0125
 43
3.75
 44
0.037500000000000006
 45
0.0
 46
0.0
 47
0.0
 48
0.0
 49
2.5
140
0.025
141
2.5
142
0.0125
143
0.03937007874
144
100.0
145
0.0
146
0.5
147
0.010000000000000002
148
0.0
 69
0
 70
0
 71
0
 72
0
 73
0
 74
0
 75
0
 76
0
 77
1
 78
12
 79
3
170
0
171
3
172
1
173
0
174
0
175
0
176
0
177
0
178
0
179
2
271
2
272
2
273
2
274
3
275
0
276
0
277
2
278
46
279
2
280
0
281
0
282
0
283
0
284
8
285
0
286
0
288
1
289
3
290
0
340
4C
371
-2
372
-2
  0
DIMSTYLE
105
81
330
4
100
AcDbSymbolTableRecord
100
AcDbDimStyleTableRecord
  2
EZ_M_5_H25_CM
 70
0
 40
1.0
 41
0.0125
 42
0.00625
 43
3.75
 44
0.018750000000000003
 45
0.0
 46
0.0
 47
0.0
 48
0.0
 49
2.5
140
0.0125
141
2.5
142
0.00625
143
0.03937007874
144
100.0
145
0.0
146
0.5
147
0.005000000000000001
148
0.0
 69
0
 70
0
 71
0
 72
0
 73
0
 74
0
 75
0
 76
0
 77
1
 78
12
 79
3
170
0
171
3
172
1
173
0
174
0
175
0
176
0
177
0
178
0
179
2
271
2
272
2
273
2
274
3
275
0
276
0
277
2
278
46
279
2
280
0
281
0
282
0
283
0
284
8
285
0
286
0
288
1
289
3
290
0
340
4C
371
-2
372
-2
  0
DIMSTYLE
105
82
330
4
100
AcDbSymbolTableRecord
100
AcDbDimStyleTableRecord
  2
EZ_M_1_H25_CM
 70
0
 40
1.0
 41
0.0025
 42
0.00125
 43
3.75
 44
0.00375
 45
0.0
 46
0.0
 47
0.0
 48
0.0
 49
2.5
140
0.0025
141
2.5
142
0.00125
143
0.03937007874
144
100.0
145
0.0
146
0.5
147
0.001
148
0.0
 69
0
 70
0
 71
0
 72
0
 73
0
 74
0
 75
0
 76
0
 77
1
 78
12
 79
3
170
0
171
3
172
1
173
0
174
0
175
0
176
0
177
0
178
0
179
2
271
2
272
2
273
2
274
3
275
0
276
0
277
2
278
46
279
2
280
0
281
0
282
0
283
0
284
8
285
0
286
0
288
1
289
3
290
0
340
4C
371
-2
372
-2
  0
DIMSTYLE
105
83
330
4
100
AcDbSymbolTableRecord
100
AcDbDimStyleTableRecord
  2
EZ_RADIUS
 70
0
 40
1.0
 41
0.25
 42
0.125
 43
3.75
 44
0.375
 45
0.0
 46
0.0
 47
0.0
 48
0.0
 49
2.5
140
0.25
141
0.0
142
0.0
143
0.03937007874
144
100.0
145
0.0
146
0.5
147
0.1
148
0.0
 69
0
 70
0
 71
0
 72
0
 73
0
 74
0
 75
0
 76
0
 77
1
 78
12
 79
3
170
0
171
3
172
0
173
0
174
0
175
0
176
0
177
0
178
0
179
2
271
2
272
2
273
2
274
3
275
0
276
0
277
2
278
46
279
1
280
0
281
0
282
0
283
0
284
8
285
0
286
0
288
1
289
3
290
0
340
4C
342
84
371
-2
372
-2
  0
DIMSTYLE
105
88
330
4
100
AcDbSymbolTableRecord
100
AcDbDimStyleTableRecord
  2
EZ_RADIUS_INSIDE
 70
0
 40
1.0
 41
0.25
 42
0.125
 43
3.75
 44
0.375
 45
0.0
 46
0.0
 47
0.0
 48
0.0
 49
2.5
140
0.25
141
0.0
142
0.0
143
0.03937007874
144
100.0
145
0.0
146
0.5
147
0.1
148
0.0
 69
0
 70
0
 71
0
 72
0
 73
0
 74
0
 75
0
 76
0
 77
0
 78
12
 79
3
170
0
171
3
172
0
173
0
174
1
175
0
176
0
177
0
178
0
179
2
271
2
272
2
273
2
274
3
275
0
276
0
277
2
278
46
279
0
280
0
281
0
282
0
283
0
284
8
285
0
286
0
288
1
289
0
290
0
340
4C
342
84
371
-2
372
-2
  0
DIMSTYLE
105
89
330
4
100
AcDbSymbolTableRecord
100
AcDbDimStyleTableRecord
  2
EZ_CURVED
 70
0
 40
1.0
 41
0.25
 42
0.125
 43
3.75
 44
0.375
 45
0.0
 46
0.0
 47
0.0
 48
0.0
 49
2.5
140
0.25
141
2.5
142
0.0
143
0.03937007874
144
100.0
145
0.0
146
0.5
147
0.1
148
0.0
 69
0
 70
0
 71
0
 72
0
 73
0
 74
0
 75
0
 76
0
 77
1
 78
12
 79
2
 90
2
170
0
171
3
172
1
173
0
174
0
175
0
176
0
177
0
178
0
179
2
271
2
272
2
273
2
274
3
275
0
276
0
277
2
278
46
279
2
280
0
281
0
282
0
283
0
284
8
285
0
286
0
288
1
289
3
290
0
340
4C
371
-2
372
-2
  0
ENDTAB
  0
TABLE
  2
BLOCK_RECORD
  5
9
330
0
100
AcDbSymbolTable
 70
5
  0
BLOCK_RECORD
  5
17
330
9
100
AcDbSymbolTableRecord
100
AcDbBlockTableRecord
  2
*Model_Space
340
1A
 70
0
280
1
281
0
  0
BLOCK_RECORD
  5
1B
330
9
100
AcDbSymbolTableRecord
100
AcDbBlockTableRecord
  2
*Paper_Space
340
1E
 70
0
280
1
281
0
  0
BLOCK_RECORD
  5
74
330
9
100
AcDbSymbolTableRecord
100
AcDbBlockTableRecord
  2
_ARCHTICK
340
0
 70
0
280
1
281
0
  0
BLOCK_RECORD
  5
78
330
9
100
AcDbSymbolTableRecord
100
AcDbBlockTableRecord
  2
_CLOSEDFILLED
340
0
 70
0
280
1
281
0
  0
BLOCK_RECORD
  5
84
330
9
100
AcDbSymbolTableRecord
100
AcDbBlockTableRecord
  2
_CLOSEDBLANK
340
0
 70
0
280
1
281
0
  0
ENDTAB
  0
ENDSEC
  0
SECTION
  2
BLOCKS
  0
BLOCK
  5
18
330
17
100
AcDbEntity
  8
0
100
AcDbBlockBegin
  2
*Model_Space
 70
0
 10
0.0
 20
0.0
 30
0.0
  3
*Model_Space
  1

  0
ENDBLK
  5
19
330
17
100
AcDbEntity
  8
0
100
AcDbBlockEnd
  0
BLOCK
  5
1C
330
1B
100
AcDbEntity
  8
0
100
AcDbBlockBegin
  2
*Paper_Space
 70
0
 10
0.0
 20
0.0
 30
0.0
  3
*Paper_Space
  1

  0
ENDBLK
  5
1D
330
1B
100
AcDbEntity
  8
0
100
AcDbBlockEnd
  0
BLOCK
  5
75
330
74
100
AcDbEntity
  8
0
100
AcDbBlockBegin
  2
_ARCHTICK
 70
0
 10
0.0
 20
0.0
 30
0.0
  3
_ARCHTICK
  1

  0
LWPOLYLINE
  5
77
330
74
100
AcDbEntity
  8
0
  6
BYBLOCK
 62
0
100
AcDbPolyline
 90
2
 70
0
 43
0.15
 10
-0.5
 20
-0.5
 10
0.5
 20
0.5
  0
ENDBLK
  5
76
330
74
100
AcDbEntity
  8
0
100
AcDbBlockEnd
  0
BLOCK
  5
79
330
78
100
AcDbEntity
  8
0
100
AcDbBlockBegin
  2
_CLOSEDFILLED
 70
0
 10
0.0
 20
0.0
 30
0.0
  3
_CLOSEDFILLED
  1

  0
SOLID
  5
7B
330
78
100
AcDbEntity
  8
0
  6
BYBLOCK
 62
0
100
AcDbTrace
 10
-1.0
 20
0.16439898372402537
 30
0.0
 11
0.0
 21
0.0
 31
0.0
 12
-1.0
 22
-0.16439898372402537
 32
0.0
 13
-1.0
 23
-0.16439898372402537
 33
0.0
  0
ENDBLK
  5
7A
330
78
100
AcDbEntity
  8
0
100
AcDbBlockEnd
  0
BLOCK
  5
85
330
84
100
AcDbEntity
  8
0
100
AcDbBlockBegin
  2
_CLOSEDBLANK
 70
0
 10
0.0
 20
0.0
 30
0.0
  3
_CLOSEDBLANK
  1

  0
LWPOLYLINE
  5
87
330
84
100
AcDbEntity
  8
0
  6
BYBLOCK
 62
0
100
AcDbPolyline
 90
3
 70
1
 10
-1.0
 20
0.16439898372402537
 10
0.0
 20
0.0
 10
-1.0
 20
-0.16439898372402537
  0
ENDBLK
  5
86
330
84
100
AcDbEntity
  8
0
100
AcDbBlockEnd
  0
ENDSEC
  0
SECTION
  2
ENTITIES
  0
LINE
  5
8A
330
17
100
AcDbEntity
  8
0
370
13
100
AcDbLine
 10
-4019.854003477702
 20
1441.32782072777
 30
0.0
 11
-4208.43807656845
 21
1441.32782072777
 31
0.0
  0
LINE
  5
8B
330
17
100
AcDbEntity
  8
0
370
13
100
AcDbLine
 10
-4209.43487656845
 20
1442.324620727769
 30
0.0
 11
-4018.857203477702
 21
1442.324620727769
 31
0.0
  0
LWPOLYLINE
  5
8C
330
17
100
AcDbEntity
  8
YAZı1
 62
7
100
AcDbPolyline
 90
4
 70
1
 10
-4211.850042444511
 20
1163.420169946649
 10
-4211.850042444511
 20
1444.318220727768
 10
-4016.477242444511
 20
1444.318220727768
 10
-4016.477242444511
 20
1163.420169946649
  0
LWPOLYLINE
  5
8D
330
17
100
AcDbEntity
  8
YAZı1
 62
7
100
AcDbPolyline
 90
3
 70
0
 10
-4018.857203477702
 20
1164.870647078757
 10
-4210.021213000358
 20
1164.870647078757
 10
-4210.021213000358
 20
1172.883261452714
  0
LWPOLYLINE
  5
8E
330
17
100
AcDbEntity
  8
YAZı1
 62
7
100
AcDbPolyline
 90
6
 70
0
 10
-4019.853275477706
 20
1171.887189452716
 10
-4019.853275477706
 20
1171.887189452716
 10
-4019.853275477706
 20
1165.866719078755
 10
-4209.02514100036
 20
1165.866719078755
 10
-4209.02514100036
 20
1171.887189452716
 10
-4209.02514100036
 20
1171.887189452716
  0
LWPOLYLINE
  5
8F
330
17
100
AcDbEntity
  8
ÇERÇ
100
AcDbPolyline
 90
6
 70
0
 10
-4018.857203477702
 20
1174.897339932078
 10
-4018.857203477702
 20
1174.897339932078
 10
-4018.857203477702
 20
1164.870647078757
 10
-4210.021213000361
 20
1164.870647078757
 10
-4210.021213000361
 20
1172.883261452719
 10
-4210.021213000361
 20
1172.883261452719
  0
LWPOLYLINE
  5
90
330
17
100
AcDbEntity
  8
ÇERÇ
100
AcDbPolyline
 90
4
 70
0
 10
-4012.49004244451
 20
1448.305420727765
 10
-4012.49004244451
 20
1159.432969946652
 10
-4215.837242444512
 20
1159.432969946652
 10
-4215.837242444512
 20
1448.305420727765
  0
LINE
  5
91
330
17
100
AcDbEntity
  8
0
370
13
100
AcDbLine
 10
-4209.43487656845
 20
1442.324620727769
 30
0.0
 11
-4209.43487656845
 21
1393.968918005662
 31
0.0
  0
LINE
  5
92
330
17
100
AcDbEntity
  8
0
370
13
100
AcDbLine
 10
-4208.43807656845
 20
1441.32782072777
 30
0.0
 11
-4208.43807656845
 21
1394.965718005661
 31
0.0
  0
LINE
  5
93
330
17
100
AcDbEntity
  8
0
370
13
100
AcDbLine
 10
-4018.857203477702
 20
1393.968918005662
 30
0.0
 11
-4018.857203477702
 21
1442.324620727769
 31
0.0
  0
LINE
  5
94
330
17
100
AcDbEntity
  8
0
370
13
100
AcDbLine
 10
-4019.854003477702
 20
1394.965718005661
 30
0.0
 11
-4019.854003477702
 21
1441.32782072777
 31
0.0
  0
LINE
  5
95
330
17
100
AcDbEntity
  8
0
370
13
100
AcDbLine
 10
-4021.054003477702
 20
1395.96251800566
 30
0.0
 11
-4021.054003477702
 21
1407.924118005664
 31
0.0
  0
LINE
  5
96
330
17
100
AcDbEntity
  8
0
370
13
100
AcDbLine
 10
-4021.054003477702
 20
1410.815849147963
 30
0.0
 11
-4021.054003477702
 21
1418.79024914797
 31
0.0
  0
LINE
  5
97
330
17
100
AcDbEntity
  8
0
370
13
100
AcDbLine
 10
-4021.054003477702
 20
1432.548111432575
 30
0.0
 11
-4021.054003477702
 21
1440.522511432569
 31
0.0
  0
LINE
  5
98
330
17
100
AcDbEntity
  8
0
370
13
100
AcDbLine
 10
-4204.611183850962
 20
1374.306435506831
 30
0.0
 11
-4114.146040023077
 21
1374.306435506831
 31
0.0
  0
LINE
  5
99
330
17
100
AcDbEntity
  8
0
370
13
100
AcDbLine
 10
-4209.43487656845
 20
1381.968918005662
 30
0.0
 11
-4018.857203477702
 21
1381.968918005662
 31
0.0
  0
LINE
  5
9A
330
17
100
AcDbEntity
  8
0
370
13
100
AcDbLine
 10
-4208.43807656845
 20
1382.965718005661
 30
0.0
 11
-4019.854003477702
 21
1382.965718005661
 31
0.0
  0
LINE
  5
9B
330
17
100
AcDbEntity
  8
0
370
13
100
AcDbLine
 10
-4114.190898674185
 20
1380.287235506827
 30
0.0
 11
-4206.433420568442
 21
1380.287235506827
 31
0.0
  0
LINE
  5
9C
330
17
100
AcDbEntity
  8
YAZı1
 62
7
100
AcDbLine
 10
-4199.455820568442
 20
1374.306435506831
 30
0.0
 11
-4199.455820568442
 21
1331.444035506818
 31
0.0
  0
LINE
  5
9D
330
17
100
AcDbEntity
  8
YAZı1
 62
7
100
AcDbLine
 10
-4207.430220568439
 20
1380.287235506827
 30
0.0
 11
-4207.430220568448
 21
1331.444035506818
 31
0.0
  0
LINE
  5
9E
330
17
100
AcDbEntity
  8
YAZı1
 62
7
100
AcDbLine
 10
-4207.430220568439
 20
1380.287235506821
 30
0.0
 11
-4207.430220568439
 21
1331.444035506818
 31
0.0
  0
LINE
  5
9F
330
17
100
AcDbEntity
  8
YAZı1
 62
7
100
AcDbLine
 10
-4207.430220568439
 20
1354.370435506826
 30
0.0
 11
-4115.134984023065
 21
1354.370435506826
 31
0.0
  0
LINE
  5
A0
330
17
100
AcDbEntity
  8
YAZı1
 62
7
100
AcDbLine
 10
-4207.430220568439
 20
1358.357635506824
 30
0.0
 11
-4114.146040023077
 21
1358.357635506824
 31
0.0
  0
LINE
  5
A1
330
17
100
AcDbEntity
  8
YAZı1
 62
7
100
AcDbLine
 10
-4207.430220568439
 20
1362.344835506827
 30
0.0
 11
-4114.146040023077
 21
1362.344835506827
 31
0.0
  0
LINE
  5
A2
330
17
100
AcDbEntity
  8
YAZı1
 62
7
100
AcDbLine
 10
-4207.430220568439
 20
1366.332035506824
 30
0.0
 11
-4114.146040023077
 21
1366.332035506824
 31
0.0
  0
LINE
  5
A3
330
17
100
AcDbEntity
  8
0
370
13
100
AcDbLine
 10
-4207.430220568439
 20
1374.306435506831
 30
0.0
 11
-4114.146040023077
 21
1374.306435506831
 31
0.0
  0
LINE
  5
A4
330
17
100
AcDbEntity
  8
YAZı1
 62
7
100
AcDbLine
 10
-4207.430220568435
 20
1354.370435506821
 30
0.0
 11
-4115.134984023065
 21
1354.370435506826
 31
0.0
  0
LINE
  5
A5
330
17
100
AcDbEntity
  8
YAZı1
 62
7
100
AcDbLine
 10
-4207.430220568439
 20
1370.319235506822
 30
0.0
 11
-4114.146040023077
 21
1370.319235506822
 31
0.0
  0
LINE
  5
A6
330
17
100
AcDbEntity
  8
YAZı1
 62
7
100
AcDbLine
 10
-4165.564620568437
 20
1374.306435506831
 30
0.0
 11
-4165.564620568437
 21
1354.370435506826
 31
0.0
  0
TEXT
  5
A7
330
17
100
AcDbEntity
  8
YAZı1
 62
7
100
AcDbText
 10
-4199.061306376004
 20
1367.377661660307
 30
0.0
 40
1.993599999999999
  1
SİCİL NO
  7
STYLE1
100
AcDbText
  0
TEXT
  5
A8
330
17
100
AcDbEntity
  8
YAZı1
 62
7
100
AcDbText
 10
-4204.364998511411
 20
1367.377661660307
 30
0.0
 40
1.993599999999999
  1
2
  7
STYLE1
100
AcDbText
  0
TEXT
  5
A9
330
17
100
AcDbEntity
  8
YAZı1
 62
7
100
AcDbText
 10
-4199.061306376004
 20
1355.416061660303
 30
0.0
 40
1.993599999999999
  1
ODA SİCİL NO
  7
STYLE1
100
AcDbText
  0
TEXT
  5
AA
330
17
100
AcDbEntity
  8
YAZı1
 62
7
100
AcDbText
 10
-4199.061306376004
 20
1363.390461660309
 30
0.0
 40
1.993599999999999
  1
SOYADI
  7
STYLE1
100
AcDbText
  0
TEXT
  5
AB
330
17
100
AcDbEntity
  8
YAZı1
 62
7
100
AcDbText
 10
-4204.364998511411
 20
1355.416061660309
 30
0.0
 40
1.993599999999999
  1
5
  7
STYLE1
100
AcDbText
  0
TEXT
  5
AC
330
17
100
AcDbEntity
  8
YAZı1
 62
7
100
AcDbText
 10
-4204.364998511411
 20
1359.403261660306
 30
0.0
 40
1.993599999999999
  1
4
  7
STYLE1
100
AcDbText
  0
TEXT
  5
AD
330
17
100
AcDbEntity
  8
YAZı1
 62
7
100
AcDbText
 10
-4199.061306376004
 20
1359.403261660306
 30
0.0
 40
1.993599999999999
  1
ADI
  7
STYLE1
100
AcDbText
  0
TEXT
  5
AE
330
17
100
AcDbEntity
  8
YAZı1
 62
7
100
AcDbText
 10
-4204.364998511411
 20
1363.390461660309
 30
0.0
 40
1.993599999999999
  1
3
  7
STYLE1
100
AcDbText
  0
TEXT
  5
AF
330
17
100
AcDbEntity
  8
YAZı1
 62
7
100
AcDbText
 10
-4199.061306376004
 20
1371.364861660305
 30
0.0
 40
1.993599999999999
  1
VERGİ DAİRESİ
  7
STYLE1
100
AcDbText
  0
TEXT
  5
B0
330
17
100
AcDbEntity
  8
YAZı1
 62
7
100
AcDbText
 10
-4204.364998511411
 20
1371.364861660305
 30
0.0
 40
1.993599999999999
  1
1
  7
STYLE1
100
AcDbText
  0
LINE
  5
B1
330
17
100
AcDbEntity
  8
0
370
13
100
AcDbLine
 10
-4207.430220568439
 20
1377.325919669179
 30
0.0
 11
-4207.430220568439
 21
1375.680159461433
 31
0.0
  0
LINE
  5
B2
330
17
100
AcDbEntity
  8
YAZı1
 62
7
100
AcDbLine
 10
-4114.138184023072
 20
1331.444035506818
 30
0.0
 11
-4114.138184023072
 21
1380.287235506827
 31
0.0
  0
LINE
  5
B3
330
17
100
AcDbEntity
  8
YAZı1
 62
7
100
AcDbLine
 10
-4180.652161951465
 20
1414.803049147967
 30
0.0
 11
-4021.054003477702
 21
1414.803049147967
 31
0.0
  0
LINE
  5
B4
330
17
100
AcDbEntity
  8
YAZı1
 62
7
100
AcDbLine
 10
-4180.652161951465
 20
1436.535311432573
 30
0.0
 11
-4021.054003477702
 21
1436.535311432554
 31
0.0
  0
LINE
  5
B5
330
17
100
AcDbEntity
  8
YAZı1
 62
7
100
AcDbLine
 10
-4207.23807656845
 20
1418.79024914797
 30
0.0
 11
-4021.054003477702
 21
1418.79024914797
 31
0.0
  0
LINE
  5
B6
330
17
100
AcDbEntity
  8
YAZı1
 62
7
100
AcDbLine
 10
-4207.23807656845
 20
1410.815849147963
 30
0.0
 11
-4021.054003477702
 21
1410.815849147963
 31
0.0
  0
LINE
  5
B7
330
17
100
AcDbEntity
  8
YAZı1
 62
7
100
AcDbLine
 10
-4021.054003477702
 20
1440.522511432569
 30
0.0
 11
-4207.23807656845
 21
1440.522511432569
 31
0.0
  0
LINE
  5
B8
330
17
100
AcDbEntity
  8
YAZı1
 62
7
100
AcDbLine
 10
-4207.23807656845
 20
1432.548111432575
 30
0.0
 11
-4021.054003477702
 21
1432.548111432575
 31
0.0
  0
TEXT
  5
B9
330
17
100
AcDbEntity
  8
YAZı1
 62
7
100
AcDbText
 10
-4206.327643051937
 20
1413.705433590668
 30
0.0
 40
1.993599999999999
  1
ARSANIN
  7
STYLE1
100
AcDbText
  0
TEXT
  5
BA
330
17
100
AcDbEntity
  8
YAZı1
 62
7
100
AcDbText
 10
-4206.327643051937
 20
1435.624818092764
 30
0.0
 40
1.993599999999999
  1
YAPININ
  7
STYLE1
100
AcDbText
  0
LINE
  5
BB
330
17
100
AcDbEntity
  8
YAZı1
 62
7
100
AcDbLine
 10
-4156.341773106443
 20
1410.815849147963
 30
0.0
 11
-4156.341773106443
 21
1418.79024914797
 31
0.0
  0
TEXT
  5
BC
330
17
100
AcDbEntity
  8
YAZı1
 62
7
100
AcDbText
 10
-4153.326221451466
 20
1415.827987289503
 30
0.0
 40
1.993599999999999
  1
İLÇESİ
  7
STYLE1
100
AcDbText
  0
LINE
  5
BD
330
17
100
AcDbEntity
  8
YAZı1
 62
7
100
AcDbLine
 10
-4180.652161951465
 20
1432.548111432575
 30
0.0
 11
-4180.652161951465
 21
1440.522511432569
 31
0.0
  0
LINE
  5
BE
330
17
100
AcDbEntity
  8
YAZı1
 62
7
100
AcDbLine
 10
-4180.652161951465
 20
1410.815849147963
 30
0.0
 11
-4180.652161951465
 21
1418.79024914797
 31
0.0
  0
TEXT
  5
BF
330
17
100
AcDbEntity
  8
YAZı1
 62
7
100
AcDbText
 10
-4175.461549823739
 20
1415.827987289503
 30
0.0
 40
1.993599999999999
  1
İLİ
  7
STYLE1
100
AcDbText
  0
TEXT
  5
C0
330
17
100
AcDbEntity
  8
YAZı1
 62
7
100
AcDbText
 10
-4169.744360447444
 20
1433.699505523003
 30
0.0
 40
1.993599999999999
  1
KULLANIM AMACI
  7
STYLE1
100
AcDbText
  0
LINE
  5
C1
330
17
100
AcDbEntity
  8
YAZı1
 62
7
100
AcDbLine
 10
-4103.096290389311
 20
1410.815849147963
 30
0.0
 11
-4103.096290389311
 21
1418.79024914797
 31
0.0
  0
TEXT
  5
C2
330
17
100
AcDbEntity
  8
YAZı1
 62
7
100
AcDbText
 10
-4101.821386460031
 20
1415.827987289503
 30
0.0
 40
1.993599999999999
  1
YUZÖLÇÜMÜ
  7
STYLE1
100
AcDbText
  0
LINE
  5
C3
330
17
100
AcDbEntity
  8
YAZı1
 62
7
100
AcDbLine
 10
-4132.357482525182
 20
1410.815849147963
 30
0.0
 11
-4132.357482525182
 21
1418.79024914797
 31
0.0
  0
TEXT
  5
C4
330
17
100
AcDbEntity
  8
YAZı1
 62
7
100
AcDbText
 10
-4128.10086000229
 20
1415.827987289503
 30
0.0
 40
1.993599999999999
  1
MAHALLESİ
  7
STYLE1
100
AcDbText
  0
LINE
  5
C5
330
17
100
AcDbEntity
  8
YAZı1
 62
7
100
AcDbLine
 10
-4081.488605491342
 20
1410.815849147963
 30
0.0
 11
-4081.488605491342
 21
1418.79024914797
 31
0.0
  0
TEXT
  5
C6
330
17
100
AcDbEntity
  8
YAZı1
 62
7
100
AcDbText
 10
-4077.87399287766
 20
1415.827987289503
 30
0.0
 40
1.993599999999999
  1
PAFTA NO
  7
STYLE1
100
AcDbText
  0
LINE
  5
C7
330
17
100
AcDbEntity
  8
YAZı1
 62
7
100
AcDbLine
 10
-4207.23807656845
 20
1418.79024914797
 30
0.0
 11
-4207.23807656845
 21
1410.815849147963
 31
0.0
  0
LINE
  5
C8
330
17
100
AcDbEntity
  8
YAZı1
 62
7
100
AcDbLine
 10
-4207.23807656845
 20
1418.79024914797
 30
0.0
 11
-4207.23807656845
 21
1410.815849147963
 31
0.0
  0
LINE
  5
C9
330
17
100
AcDbEntity
  8
YAZı1
 62
7
100
AcDbLine
 10
-4059.16344186544
 20
1410.815849147963
 30
0.0
 11
-4059.16344186544
 21
1418.79024914797
 31
0.0
  0
TEXT
  5
CA
330
17
100
AcDbEntity
  8
YAZı1
 62
7
100
AcDbText
 10
-4057.661343017395
 20
1415.827987289503
 30
0.0
 40
1.993599999999999
  1
ADA NO
  7
STYLE1
100
AcDbText
  0
LINE
  5
CB
330
17
100
AcDbEntity
  8
YAZı1
 62
7
100
AcDbLine
 10
-4042.959718778569
 20
1410.815849147963
 30
0.0
 11
-4042.959718778569
 21
1418.79024914797
 31
0.0
  0
TEXT
  5
CC
330
17
100
AcDbEntity
  8
YAZı1
 62
7
100
AcDbText
 10
-4040.974942733519
 20
1415.827987289503
 30
0.0
 40
1.993599999999999
  1
PARSEL NO
  7
STYLE1
100
AcDbText
  0
LINE
  5
CD
330
17
100
AcDbEntity
  8
YAZı1
 62
7
100
AcDbLine
 10
-4207.23807656845
 20
1440.522511432569
 30
0.0
 11
-4207.23807656845
 21
1432.548111432575
 31
0.0
  0
LINE
  5
CE
330
17
100
AcDbEntity
  8
YAZı1
 62
7
100
AcDbLine
 10
-4207.23807656845
 20
1407.924118005664
 30
0.0
 11
-4021.054003477702
 21
1407.924118005664
 31
0.0
  0
LINE
  5
CF
330
17
100
AcDbEntity
  8
YAZı1
 62
7
100
AcDbLine
 10
-4191.682569043038
 20
1395.96251800566
 30
0.0
 11
-4191.682569043038
 21
1407.924118005664
 31
0.0
  0
LINE
  5
D0
330
17
100
AcDbEntity
  8
0
370
13
100
AcDbLine
 10
-4114.146040023077
 20
1380.287235506821
 30
0.0
 11
-4019.854003477702
 21
1380.287235506821
 31
0.0
  0
LINE
  5
D1
330
17
100
AcDbEntity
  8
YAZı1
 62
7
100
AcDbLine
 10
-4207.430220568448
 20
1331.444035506818
 30
0.0
 11
-4207.430220568439
 21
1380.287235506827
 31
0.0
  0
LINE
  5
D2
330
17
100
AcDbEntity
  8
YAZı1
 62
7
100
AcDbLine
 10
-4208.430220568441
 20
1331.444035506813
 30
0.0
 11
-4208.430220568436
 21
1378.290435506827
 31
0.0
  0
LINE
  5
D3
330
17
100
AcDbEntity
  8
YAZı1
 62
7
100
AcDbLine
 10
-4208.426292568442
 20
1331.444035506813
 30
0.0
 11
-4208.430220568445
 21
1380.287235506821
 31
0.0
  0
LINE
  5
D4
330
17
100
AcDbEntity
  8
YAZı1
 62
7
100
AcDbLine
 10
-4114.142112023075
 20
1380.287235506821
 30
0.0
 11
-4114.138184023072
 21
1331.444035506818
 31
0.0
  0
LINE
  5
D5
330
17
100
AcDbEntity
  8
YAZı1
 62
7
100
AcDbLine
 10
-4114.146040023077
 20
1380.287235506821
 30
0.0
 11
-4114.142112023075
 21
1331.444035506818
 31
0.0
  0
LINE
  5
D6
330
17
100
AcDbEntity
  8
YAZı1
 62
7
100
AcDbLine
 10
-4114.146040023077
 20
1331.447235506819
 30
0.0
 11
-4019.854003477702
 21
1331.447235506819
 31
0.0
  0
LINE
  5
D7
330
17
100
AcDbEntity
  8
0
370
13
100
AcDbLine
 10
-4114.142112023075
 20
1331.444035506818
 30
0.0
 11
-4019.850075477699
 21
1331.444035506813
 31
0.0
  0
LINE
  5
D8
330
17
100
AcDbEntity
  8
YAZı1
 62
7
100
AcDbLine
 10
-4138.710437697151
 20
1432.548111432575
 30
0.0
 11
-4138.710437697151
 21
1440.522511432569
 31
0.0
  0
LINE
  5
D9
330
17
100
AcDbEntity
  8
YAZı1
 62
7
100
AcDbLine
 10
-4207.23807656845
 20
1407.924118005664
 30
0.0
 11
-4207.23807656845
 21
1395.96251800566
 31
0.0
  0
LWPOLYLINE
  5
DA
330
17
100
AcDbEntity
  8
0
370
13
100
AcDbPolyline
 90
4
 70
1
 10
-4113.546040023077
 20
1380.287235506821
 10
-4107.767712023063
 20
1380.287235506821
 10
-4107.76378402306
 20
1331.447235506819
 10
-4113.542112023075
 20
1331.447235506819
  0
LINE
  5
DB
330
17
100
AcDbEntity
  8
YAZı1
 62
7
100
AcDbLine
 10
-4208.42629256844
 20
1331.3577462612
 30
0.0
 11
-4208.42629256844
 21
1285.635969283524
 31
0.0
  0
LWPOLYLINE
  5
DC
330
17
100
AcDbEntity
  8
ÇERÇ
100
AcDbPolyline
 90
4
 70
1
 10
-4215.837242444512
 20
1159.432969946652
 10
-4012.49004244451
 20
1159.432969946652
 10
-4012.49004244451
 20
1448.305420727765
 10
-4215.837242444512
 20
1448.305420727765
  0
LINE
  5
DD
330
17
100
AcDbEntity
  8
0
370
13
100
AcDbLine
 10
-4021.054003477702
 20
1421.681980290269
 30
0.0
 11
-4021.054003477702
 21
1429.65638029027
 31
0.0
  0
LINE
  5
DE
330
17
100
AcDbEntity
  8
YAZı1
 62
7
100
AcDbLine
 10
-4180.652161951465
 20
1425.669180290267
 30
0.0
 11
-4021.054003477702
 21
1425.669180290267
 31
0.0
  0
LINE
  5
DF
330
17
100
AcDbEntity
  8
YAZı1
 62
7
100
AcDbLine
 10
-4021.054003477702
 20
1429.65638029027
 30
0.0
 11
-4207.23807656845
 21
1429.65638029027
 31
0.0
  0
LINE
  5
E0
330
17
100
AcDbEntity
  8
YAZı1
 62
7
100
AcDbLine
 10
-4207.23807656845
 20
1421.681980290269
 30
0.0
 11
-4021.054003477702
 21
1421.681980290269
 31
0.0
  0
TEXT
  5
E1
330
17
100
AcDbEntity
  8
YAZı1
 62
7
100
AcDbText
 10
-4206.327643051937
 20
1424.758686950458
 30
0.0
 40
1.993599999999999
  1
YÜKLENİCİ
  7
STYLE1
100
AcDbText
  0
LINE
  5
E2
330
17
100
AcDbEntity
  8
YAZı1
 62
7
100
AcDbLine
 10
-4180.652161951465
 20
1421.681980290269
 30
0.0
 11
-4180.652161951465
 21
1429.65638029027
 31
0.0
  0
LINE
  5
E3
330
17
100
AcDbEntity
  8
YAZı1
 62
7
100
AcDbLine
 10
-4207.23807656845
 20
1429.65638029027
 30
0.0
 11
-4207.23807656845
 21
1421.681980290269
 31
0.0
  0
LINE
  5
E4
330
17
100
AcDbEntity
  8
YAZı1
 62
7
100
AcDbLine
 10
-4138.65184033761
 20
1421.681980290269
 30
0.0
 11
-4138.65184033761
 21
1429.656380290263
 31
0.0
  0
LWPOLYLINE
  5
E5
330
17
100
AcDbEntity
  8
ÇERÇ
100
AcDbPolyline
 90
6
 70
0
 10
-4210.021213000361
 20
1172.883261452719
 10
-4210.021213000361
 20
1172.883261452719
 10
-4210.021213000361
 20
1193.907081332342
 10
-4018.857203477702
 20
1193.907081332337
 10
-4018.857203477702
 20
1174.897339932078
 10
-4018.857203477702
 20
1174.897339932078
  0
LWPOLYLINE
  5
E6
330
17
100
AcDbEntity
  8
YAZı1
100
AcDbPolyline
 90
6
 70
0
 10
-4209.02514100036
 20
1171.887189452716
 10
-4209.02514100036
 20
1171.887189452716
 10
-4209.024413000361
 20
1192.910281332343
 10
-4019.854003477702
 20
1192.910281332337
 10
-4019.853275477706
 20
1171.887189452716
 10
-4019.853275477706
 20
1171.887189452716
  0
LWPOLYLINE
  5
E7
330
17
100
AcDbEntity
  8
0
370
13
100
AcDbPolyline
 90
4
 70
0
 10
-4019.854003477702
 20
1331.444035506818
 10
-4019.854003477702
 20
1380.287235506821
 10
-4208.43807656845
 20
1380.287235506821
 10
-4208.43807656845
 20
1331.444035506818
  0
LWPOLYLINE
  5
E8
330
17
100
AcDbEntity
  8
0
370
13
100
AcDbPolyline
 90
4
 70
1
 10
-4114.146040023077
 20
1380.287235506821
 10
-4019.854003477702
 20
1380.287235506821
 10
-4019.854003477702
 20
1331.444035506818
 10
-4114.146040023077
 20
1331.444035506818
  0
LWPOLYLINE
  5
E9
330
17
100
AcDbEntity
  8
ÇERÇ
100
AcDbPolyline
 90
4
 70
1
 10
-4209.43487656845
 20
1442.324620727769
 10
-4018.857203477702
 20
1442.324620727769
 10
-4018.857203477702
 20
1381.968918005662
 10
-4209.43487656845
 20
1381.968918005662
  0
LWPOLYLINE
  5
EA
330
17
100
AcDbEntity
  8
YAZı1
100
AcDbPolyline
 90
4
 70
1
 10
-4019.842219477692
 20
1278.223732139559
 10
-4208.42629256844
 20
1278.223732139559
 10
-4208.426292568442
 20
1331.444035506813
 10
-4019.842219477694
 20
1331.444035506813
  0
LINE
  5
EB
330
17
100
AcDbEntity
  8
0
370
13
100
AcDbLine
 10
-4112.263743620441
 20
1278.223732139559
 30
0.0
 11
-4018.909918128815
 21
1278.223732139559
 31
0.0
  0
LINE
  5
EC
330
17
100
AcDbEntity
  8
YAZı1
 62
7
100
AcDbLine
 10
-4018.909918128815
 20
1202.645554060168
 30
0.0
 11
-4018.909918128815
 21
1266.414108080992
 31
0.0
  0
LINE
  5
ED
330
17
100
AcDbEntity
  8
YAZı1
 62
7
100
AcDbLine
 10
-4208.43807656845
 20
1277.22373213956
 30
0.0
 11
-4208.438076568447
 21
1210.351337143691
 31
0.0
  0
LINE
  5
EE
330
17
100
AcDbEntity
  8
YAZı1
 62
7
100
AcDbLine
 10
-4114.163642444512
 20
1194.479652597382
 30
0.0
 11
-4114.163642444512
 21
1194.482852597382
 31
0.0
  0
LWPOLYLINE
  5
EF
330
17
100
AcDbEntity
  8
YAZı1
 62
7
100
AcDbPolyline
 90
4
 70
1
 10
-4019.854003477702
 20
1210.351337143691
 10
-4208.43807656845
 20
1210.351337143691
 10
-4208.43807656845
 20
1277.226932139561
 10
-4019.854003477702
 20
1277.226932139561
  0
LINE
  5
F0
330
17
100
AcDbEntity
  8
0
370
13
100
AcDbLine
 10
-4107.186042444509
 20
1271.741465828428
 30
0.0
 11
-4019.854003477702
 21
1271.741465828428
 31
0.0
  0
TEXT
  5
F1
330
17
100
AcDbEntity
  8
YAZı1
 62
7
100
AcDbText
 10
-4208.43807656845
 20
1273.741465828426
 30
0.0
 40
2.39232
  1
MİMARİ PROJE AVAN PROJE UYGUNLUĞU GÖRÜLDÜ
  7
STYLE1
100
AcDbText
  0
LINE
  5
F2
330
17
100
AcDbEntity
  8
0
370
13
100
AcDbLine
 10
-4208.43807656845
 20
1271.741465828427
 30
0.0
 11
-4107.186042444509
 21
1271.741465828428
 31
0.0
  0
LWPOLYLINE
  5
F3
330
17
100
AcDbEntity
  8
ÇERÇ
100
AcDbPolyline
 90
4
 70
1
 10
-4209.43487656845
 20
1207.215875764697
 10
-4018.857203477702
 20
1207.215875764697
 10
-4018.857203477702
 20
1195.521914937969
 10
-4209.43487656845
 20
1195.521914937969
  0
TEXT
  5
F4
330
17
100
AcDbEntity
  8
YAZı1
 62
7
100
AcDbText
 10
-4188.992202384734
 20
1198.133358763897
 30
0.0
 40
6.766502779072806
  1
ASANSÖR UYGULAMA PROJE
  7
STYLE1
100
AcDbText
  0
TEXT
  5
F5
330
17
100
AcDbEntity
  8
0
100
AcDbText
 10
-4170.176809405474
 20
1437.571928339416
 30
0.0
 40
2.064417653567808
  1
SAHİBİ
  7
dddddddddd
100
AcDbText
  0
TEXT
  5
F6
330
17
100
AcDbEntity
  8
0
100
AcDbText
 10
-4180.384795896922
 20
1422.788414725411
 30
0.0
 40
2.064417653567808
  1
VERGİ DAİRESİ ve NUMARASI 
  7
dddddddddd
100
AcDbText
  0
TEXT
  5
F7
330
17
100
AcDbEntity
  8
YAZı
100
AcDbText
 10
-4207.430220568439
 20
1376.503039565307
 30
0.0
 40
1.615488366175534
  1
PLAN PROJE RESİM VE HESAPLARI YAPAN MAKİNA MÜHENDİSİ
  7
ODA
100
AcDbText
  0
LINE
  5
F8
330
17
100
AcDbEntity
  8
t-çap
100
AcDbLine
 10
-4057.759135894861
 20
1380.287235506821
 30
0.0
 11
-4057.759135894861
 21
1380.287235506821
 31
0.0
  0
LINE
  5
F9
330
17
100
AcDbEntity
  8
t-çap
100
AcDbLine
 10
-4215.837242444512
 20
1159.432969946652
 30
0.0
 11
-973.8203411352806
 21
1159.432969946652
 31
0.0
  0
LINE
  5
FA
330
17
100
AcDbEntity
  8
t-çap
100
AcDbLine
 10
-4215.837242444512
 20
1159.432969946652
 30
0.0
 11
-4215.837242444512
 21
1759.432969946652
 31
0.0
  0
LINE
  5
FB
330
17
100
AcDbEntity
  8
t-çap
100
AcDbLine
 10
-4215.837242444512
 20
1759.432969946652
 30
0.0
 11
-973.8203411352806
 21
1759.432969946653
 31
0.0
  0
MTEXT
  5
FC
330
17
100
AcDbEntity
  8
t-çap
100
AcDbMText
 10
-4206.975922503796
 20
1405.011585088801
 30
0.0
 40
3.0
 41
35.20859585586004
 46
0.0
 71
1
 72
5
  1
BLOK:
  7
1
1001
ACAD
1000
ACAD_MTEXT_COLUMN_INFO_BEGIN
1070
75
1070
2
1070
79
1070
0
1070
76
1070
1
1070
78
1070
0
1070
48
1040
35.20859585586004
1070
49
1040
2.5
1070
50
1070
1
1040
0.0
1000
ACAD_MTEXT_COLUMN_INFO_END
1000
ACAD_MTEXT_COLUMNS_BEGIN
1070
47
1070
1
1000
ACAD_MTEXT_COLUMNS_END
  0
LINE
  5
FD
330
17
100
AcDbEntity
  8
t-çap
100
AcDbLine
 10
-4207.23807656845
 20
1407.96251800566
 30
0.0
 11
-4207.23807656845
 21
1395.96251800566
 31
0.0
  0
LINE
  5
FE
330
17
100
AcDbEntity
  8
t-çap
100
AcDbLine
 10
-4207.23807656845
 20
1383.96251800566
 30
0.0
 11
-4169.332944151291
 21
1383.96251800566
 31
0.0
  0
LINE
  5
FF
330
17
100
AcDbEntity
  8
0
370
13
100
AcDbLine
 10
-4104.522337094619
 20
1374.90643610384
 30
0.0
 11
-4019.854003477702
 21
1374.90643610384
 31
0.0
  0
LINE
  5
100
330
17
100
AcDbEntity
  8
YAZı1
 62
7
100
AcDbLine
 10
-4099.366973812099
 20
1374.90643610384
 30
0.0
 11
-4099.366973812099
 21
1331.444035506813
 31
0.0
  0
LINE
  5
101
330
17
100
AcDbEntity
  8
YAZı1
 62
7
100
AcDbLine
 10
-4107.341373812096
 20
1354.970436103835
 30
0.0
 11
-4015.046137266723
 21
1354.970436103835
 31
0.0
  0
LINE
  5
102
330
17
100
AcDbEntity
  8
YAZı1
 62
7
100
AcDbLine
 10
-4107.765995996159
 20
1358.950485535912
 30
0.0
 11
-4018.857203477702
 21
1358.957636103832
 31
0.0
  0
LINE
  5
103
330
17
100
AcDbEntity
  8
YAZı1
 62
7
100
AcDbLine
 10
-4107.766317242573
 20
1362.944801927387
 30
0.0
 11
-4018.857203477702
 21
1362.944836103836
 31
0.0
  0
LINE
  5
104
330
17
100
AcDbEntity
  8
YAZı1
 62
7
100
AcDbLine
 10
-4107.766637344297
 20
1366.924885484332
 30
0.0
 11
-4018.857203477702
 21
1366.932036103833
 31
0.0
  0
LINE
  5
105
330
17
100
AcDbEntity
  8
0
370
13
100
AcDbLine
 10
-4107.767279264778
 20
1374.906401850018
 30
0.0
 11
-4018.857203477702
 21
1374.90643610384
 31
0.0
  0
LINE
  5
106
330
17
100
AcDbEntity
  8
YAZı1
 62
7
100
AcDbLine
 10
-4107.765675894435
 20
1354.970401978961
 30
0.0
 11
-4018.857203477702
 21
1354.970436103835
 31
0.0
  0
LINE
  5
107
330
17
100
AcDbEntity
  8
YAZı1
 62
7
100
AcDbLine
 10
-4107.766958018365
 20
1370.912085458539
 30
0.0
 11
-4018.857203477702
 21
1370.91923610383
 31
0.0
  0
LINE
  5
108
330
17
100
AcDbEntity
  8
YAZı1
 62
7
100
AcDbLine
 10
-4065.475773812095
 20
1374.90643610384
 30
0.0
 11
-4065.475773812095
 21
1354.970436103835
 31
0.0
  0
TEXT
  5
109
330
17
100
AcDbEntity
  8
YAZı1
 62
7
100
AcDbText
 10
-4098.972459619662
 20
1367.977662257316
 30
0.0
 40
1.993599999999999
  1
SİCİL NO
  7
STYLE1
100
AcDbText
  0
TEXT
  5
10A
330
17
100
AcDbEntity
  8
YAZı1
 62
7
100
AcDbText
 10
-4104.276151755068
 20
1367.977662257316
 30
0.0
 40
1.993599999999999
  1
2
  7
STYLE1
100
AcDbText
  0
TEXT
  5
10B
330
17
100
AcDbEntity
  8
YAZı1
 62
7
100
AcDbText
 10
-4098.972459619662
 20
1356.016062257312
 30
0.0
 40
1.993599999999999
  1
ODA SİCİL NO
  7
STYLE1
100
AcDbText
  0
TEXT
  5
10C
330
17
100
AcDbEntity
  8
YAZı1
 62
7
100
AcDbText
 10
-4098.972459619662
 20
1363.990462257318
 30
0.0
 40
1.993599999999999
  1
SOYADI
  7
STYLE1
100
AcDbText
  0
TEXT
  5
10D
330
17
100
AcDbEntity
  8
YAZı1
 62
7
100
AcDbText
 10
-4104.276151755068
 20
1356.016062257318
 30
0.0
 40
1.993599999999999
  1
5
  7
STYLE1
100
AcDbText
  0
TEXT
  5
10E
330
17
100
AcDbEntity
  8
YAZı1
 62
7
100
AcDbText
 10
-4104.276151755068
 20
1360.003262257315
 30
0.0
 40
1.993599999999999
  1
4
  7
STYLE1
100
AcDbText
  0
TEXT
  5
10F
330
17
100
AcDbEntity
  8
YAZı1
 62
7
100
AcDbText
 10
-4098.972459619662
 20
1360.003262257315
 30
0.0
 40
1.993599999999999
  1
ADI
  7
STYLE1
100
AcDbText
  0
TEXT
  5
110
330
17
100
AcDbEntity
  8
YAZı1
 62
7
100
AcDbText
 10
-4104.276151755068
 20
1363.990462257318
 30
0.0
 40
1.993599999999999
  1
3
  7
STYLE1
100
AcDbText
  0
TEXT
  5
111
330
17
100
AcDbEntity
  8
YAZı1
 62
7
100
AcDbText
 10
-4098.972459619662
 20
1371.964862257313
 30
0.0
 40
1.993599999999999
  1
VERGİ DAİRESİ
  7
STYLE1
100
AcDbText
  0
TEXT
  5
112
330
17
100
AcDbEntity
  8
YAZı1
 62
7
100
AcDbText
 10
-4104.276151755068
 20
1371.964862257313
 30
0.0
 40
1.993599999999999
  1
1
  7
STYLE1
100
AcDbText
  0
TEXT
  5
113
330
17
100
AcDbEntity
  8
YAZı
100
AcDbText
 10
-4107.167429690981
 20
1376.776542457367
 30
0.0
 40
1.615488366175534
  1
PLAN PROJE RESİM VE HESAPLARI YAPAN ELEKTRİK MÜHENDİSİ
  7
ODA
100
AcDbText
  0
LINE
  5
114
330
17
100
AcDbEntity
  8
0
100
AcDbLine
 10
-4019.854003477702
 20
1271.741465828428
 30
0.0
 11
-4081.254003477702
 21
1271.741465828428
 31
0.0
  0
TEXT
  5
115
330
17
100
AcDbEntity
  8
YAZı1
 62
7
100
AcDbText
 10
-4108.593540721493
 20
1273.574188730046
 30
0.0
 40
2.39232
  1
ASANSÖR MONTAJ FİRMA BİLGİLERİ
  7
STYLE1
100
AcDbText
  0
LINE
  5
116
330
17
100
AcDbEntity
  8
YAZı1
 62
7
100
AcDbLine
 10
-4111.854003477701
 20
1267.02112134883
 30
0.0
 11
-4111.854003477701
 21
1227.02112134883
 31
0.0
  0
LINE
  5
117
330
17
100
AcDbEntity
  8
YAZı1
 62
7
100
AcDbLine
 10
-4119.8284034777
 20
1243.097921348828
 30
0.0
 11
-4027.533166932325
 21
1243.097921348828
 31
0.0
  0
LINE
  5
118
330
17
100
AcDbEntity
  8
YAZı1
 62
7
100
AcDbLine
 10
-4119.8284034777
 20
1251.072321348829
 30
0.0
 11
-4019.854003477702
 21
1251.072321348829
 31
0.0
  0
LINE
  5
119
330
17
100
AcDbEntity
  8
YAZı1
 62
7
100
AcDbLine
 10
-4119.8284034777
 20
1255.059521348826
 30
0.0
 11
-4026.544222932338
 21
1255.059521348826
 31
0.0
  0
LINE
  5
11A
330
17
100
AcDbEntity
  8
YAZı1
 62
7
100
AcDbLine
 10
-4119.828403477696
 20
1243.097921348822
 30
0.0
 11
-4027.533166932325
 21
1243.097921348828
 31
0.0
  0
LINE
  5
11B
330
17
100
AcDbEntity
  8
YAZı1
 62
7
100
AcDbLine
 10
-4119.8284034777
 20
1259.046721348824
 30
0.0
 11
-4026.544222932338
 21
1259.046721348824
 31
0.0
  0
LINE
  5
11C
330
17
100
AcDbEntity
  8
YAZı1
 62
7
100
AcDbLine
 10
-4077.962803477698
 20
1267.02112134883
 30
0.0
 11
-4077.962803477698
 21
1243.097921348828
 31
0.0
  0
TEXT
  5
11D
330
17
100
AcDbEntity
  8
YAZı1
 62
7
100
AcDbText
 10
-4111.459489285265
 20
1256.105147502309
 30
0.0
 40
1.993599999999999
  1
VERGİ NO
  7
STYLE1
100
AcDbText
  0
TEXT
  5
11E
330
17
100
AcDbEntity
  8
YAZı1
 62
7
100
AcDbText
 10
-4116.763181420671
 20
1256.105147502309
 30
0.0
 40
1.993599999999999
  1
2
  7
STYLE1
100
AcDbText
  0
TEXT
  5
11F
330
17
100
AcDbEntity
  8
YAZı1
 62
7
100
AcDbText
 10
-4111.459489285265
 20
1252.117947502312
 30
0.0
 40
1.993599999999999
  1
VERGİ DAİRESİ
  7
STYLE1
100
AcDbText
  0
TEXT
  5
120
330
17
100
AcDbEntity
  8
YAZı1
 62
7
100
AcDbText
 10
-4116.763181420671
 20
1245.752068330778
 30
0.0
 40
1.993599999999999
  1
4
  7
STYLE1
100
AcDbText
  0
TEXT
  5
121
330
17
100
AcDbEntity
  8
YAZı1
 62
7
100
AcDbText
 10
-4116.763181420671
 20
1252.117947502312
 30
0.0
 40
1.993599999999999
  1
3
  7
STYLE1
100
AcDbText
  0
TEXT
  5
122
330
17
100
AcDbEntity
  8
YAZı1
 62
7
100
AcDbText
 10
-4111.459489285265
 20
1262.28412257866
 30
0.0
 40
1.993599999999999
  1
ADI SOYADI / UNVANI
  7
STYLE1
100
AcDbText
  0
TEXT
  5
123
330
17
100
AcDbEntity
  8
YAZı1
 62
7
100
AcDbText
 10
-4116.763181420671
 20
1262.28412257866
 30
0.0
 40
1.993599999999999
  1
1
  7
STYLE1
100
AcDbText
  0
TEXT
  5
124
330
17
100
AcDbEntity
  8
YAZı1
 62
7
100
AcDbText
 10
-4111.427196366659
 20
1245.973323917265
 30
0.0
 40
1.993599999999999
  1
ADRESİ
  7
STYLE1
100
AcDbText
  0
LINE
  5
125
330
17
100
AcDbEntity
  8
0
100
AcDbLine
 10
-4111.854003477701
 20
1267.02112134883
 30
0.0
 11
-4119.854003477701
 21
1267.02112134883
 31
0.0
  0
LINE
  5
126
330
17
100
AcDbEntity
  8
0
100
AcDbLine
 10
-4119.854003477701
 20
1267.02112134883
 30
0.0
 11
-4119.854003477701
 21
1227.02112134883
 31
0.0
  0
LINE
  5
127
330
17
100
AcDbEntity
  8
0
100
AcDbLine
 10
-4119.854003477701
 20
1267.02112134883
 30
0.0
 11
-4019.854003477702
 21
1267.02112134883
 31
0.0
  0
LINE
  5
128
330
17
100
AcDbEntity
  8
0
100
AcDbLine
 10
-4019.854003477702
 20
1267.02112134883
 30
0.0
 11
-4019.854003477702
 21
1227.02112134883
 31
0.0
  0
LINE
  5
129
330
17
100
AcDbEntity
  8
0
100
AcDbLine
 10
-4019.854003477702
 20
1210.351337143691
 30
0.0
 11
-4119.854003477701
 21
1210.351337143691
 31
0.0
  0
LINE
  5
12A
330
17
100
AcDbEntity
  8
0
100
AcDbLine
 10
-4026.544222932338
 20
1255.059521348827
 30
0.0
 11
-4019.854003477702
 21
1255.059521348827
 31
0.0
  0
LINE
  5
12B
330
17
100
AcDbEntity
  8
0
100
AcDbLine
 10
-4026.544222932338
 20
1259.046721348824
 30
0.0
 11
-4019.854003477702
 21
1259.046721348824
 31
0.0
  0
LINE
  5
12C
330
17
100
AcDbEntity
  8
0
100
AcDbLine
 10
-4027.533166932327
 20
1243.097921348828
 30
0.0
 11
-4019.854003477703
 21
1243.097921348829
 31
0.0
  0
LINE
  5
12D
330
17
100
AcDbEntity
  8
0
100
AcDbLine
 10
-4019.854003477702
 20
1271.741465828428
 30
0.0
 11
-4119.854003477701
 21
1271.741465828428
 31
0.0
  0
LINE
  5
12E
330
17
100
AcDbEntity
  8
0
100
AcDbLine
 10
-4119.854003477701
 20
1210.351337143691
 30
0.0
 11
-4119.854003477701
 21
1277.226932139561
 31
0.0
  0
LINE
  5
12F
330
17
100
AcDbEntity
  8
0
100
AcDbLine
 10
-4111.854003477701
 20
1227.02112134883
 30
0.0
 11
-4111.854003477701
 21
1210.351337143691
 31
0.0
  0
LINE
  5
130
330
17
100
AcDbEntity
  8
0
100
AcDbLine
 10
-4208.43807656845
 20
1394.965718005661
 30
0.0
 11
-4208.43807656845
 21
1382.965718005661
 31
0.0
  0
LINE
  5
131
330
17
100
AcDbEntity
  8
0
100
AcDbLine
 10
-4207.23807656845
 20
1395.96251800566
 30
0.0
 11
-4207.23807656845
 21
1383.96251800566
 31
0.0
  0
LINE
  5
132
330
17
100
AcDbEntity
  8
0
100
AcDbLine
 10
-4019.854003477702
 20
1394.965718005661
 30
0.0
 11
-4019.854003477702
 21
1382.965718005661
 31
0.0
  0
LINE
  5
133
330
17
100
AcDbEntity
  8
0
100
AcDbLine
 10
-4021.054003477702
 20
1395.96251800566
 30
0.0
 11
-4021.054003477702
 21
1382.965718005661
 31
0.0
  0
LINE
  5
134
330
17
100
AcDbEntity
  8
0
100
AcDbLine
 10
-4191.682569043038
 20
1395.96251800566
 30
0.0
 11
-4191.682569043038
 21
1383.96251800566
 31
0.0
  0
LINE
  5
135
330
17
100
AcDbEntity
  8
YAZı1
 62
7
100
AcDbLine
 10
-4191.483378337021
 20
1403.458206449952
 30
0.0
 11
-4037.054003477702
 21
1403.458206449952
 31
0.0
  0
LINE
  5
136
330
17
100
AcDbEntity
  8
YAZı1
 62
7
100
AcDbLine
 10
-4191.483378337021
 20
1407.445406449956
 30
0.0
 11
-4031.885219863258
 21
1407.445406449956
 31
0.0
  0
LINE
  5
137
330
17
100
AcDbEntity
  8
YAZı1
 62
7
100
AcDbLine
 10
-4191.483378337021
 20
1399.471006449949
 30
0.0
 11
-4037.054003477702
 21
1399.47100644995
 31
0.0
  0
LINE
  5
138
330
17
100
AcDbEntity
  8
YAZı1
 62
7
100
AcDbLine
 10
-4167.172989491999
 20
1399.471006449949
 30
0.0
 11
-4167.172989491999
 21
1407.445406449956
 31
0.0
  0
TEXT
  5
139
330
17
100
AcDbEntity
  8
YAZı1
 62
7
100
AcDbText
 10
-4164.157437837022
 20
1404.483144591489
 30
0.0
 40
1.993599999999999
  1
Asansör Hızı
  7
STYLE1
100
AcDbText
  0
LINE
  5
13A
330
17
100
AcDbEntity
  8
YAZı1
 62
7
100
AcDbLine
 10
-4191.682569043038
 20
1399.471006449949
 30
0.0
 11
-4191.682569043038
 21
1407.445406449956
 31
0.0
  0
TEXT
  5
13B
330
17
100
AcDbEntity
  8
YAZı1
 62
7
100
AcDbText
 10
-4190.29264153761
 20
1404.45156361717
 30
0.0
 40
1.993599999999999
  1
Taşıma Kapasitesi
  7
STYLE1
100
AcDbText
  0
LINE
  5
13C
330
17
100
AcDbEntity
  8
YAZı1
 62
7
100
AcDbLine
 10
-4117.927506774868
 20
1399.471006449949
 30
0.0
 11
-4117.927506774868
 21
1407.445406449956
 31
0.0
  0
TEXT
  5
13D
330
17
100
AcDbEntity
  8
YAZı1
 62
7
100
AcDbText
 10
-4116.652602845587
 20
1404.483144591489
 30
0.0
 40
1.993599999999999
  1
Seyir Mesafesi
  7
STYLE1
100
AcDbText
  0
LINE
  5
13E
330
17
100
AcDbEntity
  8
YAZı1
 62
7
100
AcDbLine
 10
-4147.388698910738
 20
1399.471006449949
 30
0.0
 11
-4147.388698910738
 21
1407.445406449956
 31
0.0
  0
TEXT
  5
13F
330
17
100
AcDbEntity
  8
YAZı1
 62
7
100
AcDbText
 10
-4142.932076387847
 20
1404.483144591489
 30
0.0
 40
1.993599999999999
  1
Durak Sayısı
  7
STYLE1
100
AcDbText
  0
LINE
  5
140
330
17
100
AcDbEntity
  8
YAZı1
 62
7
100
AcDbLine
 10
-4098.319821876898
 20
1399.471006449949
 30
0.0
 11
-4098.319821876898
 21
1407.445406449956
 31
0.0
  0
TEXT
  5
141
330
17
100
AcDbEntity
  8
YAZı1
 62
7
100
AcDbText
 10
-4094.682067093553
 20
1404.483144591489
 30
0.0
 40
1.993599999999999
  1
Kabin Ölçüleri
  7
STYLE1
100
AcDbText
  0
LINE
  5
142
330
17
100
AcDbEntity
  8
YAZı1
 62
7
100
AcDbLine
 10
-4069.994658250997
 20
1399.471006449949
 30
0.0
 11
-4069.994658250997
 21
1407.445406449956
 31
0.0
  0
TEXT
  5
143
330
17
100
AcDbEntity
  8
YAZı1
 62
7
100
AcDbText
 10
-4068.49255940295
 20
1404.483144591489
 30
0.0
 40
1.993599999999999
  1
Standart / Yönetmelik
  7
STYLE1
100
AcDbText
  0
LINE
  5
144
330
17
100
AcDbEntity
  8
0
100
AcDbLine
 10
-4098.319821876898
 20
1403.458206449952
 30
0.0
 11
-4084.319821876898
 21
1403.458206449952
 31
0.0
  0
LINE
  5
145
330
17
100
AcDbEntity
  8
0
100
AcDbLine
 10
-4098.319821876898
 20
1403.458206449952
 30
0.0
 11
-4084.319821876898
 21
1403.458206449952
 31
0.0
  0
LINE
  5
146
330
17
100
AcDbEntity
  8
0
100
AcDbLine
 10
-4084.319821876898
 20
1403.458206449952
 30
0.0
 11
-4084.319821876898
 21
1399.471006449949
 31
0.0
  0
MTEXT
  5
147
330
17
100
AcDbEntity
  8
0
100
AcDbMText
 10
-4096.319821876899
 20
1402.458206449953
 30
0.0
 40
2.0
 41
14.0
 46
0.0
 71
1
 72
5
  1
G: 
1001
ACAD
1000
ACAD_MTEXT_COLUMN_INFO_BEGIN
1070
75
1070
2
1070
79
1070
0
1070
76
1070
1
1070
78
1070
0
1070
48
1040
14.0
1070
49
1040
2.5
1070
50
1070
1
1040
0.0
1000
ACAD_MTEXT_COLUMN_INFO_END
1000
ACAD_MTEXT_COLUMNS_BEGIN
1070
47
1070
1
1000
ACAD_MTEXT_COLUMNS_END
  0
MTEXT
  5
148
330
17
100
AcDbEntity
  8
0
100
AcDbMText
 10
-4082.112127623683
 20
1402.627257750333
 30
0.0
 40
2.0
 41
14.0
 46
0.0
 71
1
 72
5
  1
D: 
1001
ACAD
1000
ACAD_MTEXT_COLUMN_INFO_BEGIN
1070
75
1070
2
1070
79
1070
0
1070
76
1070
1
1070
78
1070
0
1070
48
1040
14.0
1070
49
1040
2.5
1070
50
1070
1
1040
0.0
1000
ACAD_MTEXT_COLUMN_INFO_END
1000
ACAD_MTEXT_COLUMNS_BEGIN
1070
47
1070
1
1000
ACAD_MTEXT_COLUMNS_END
  0
LINE
  5
149
330
17
100
AcDbEntity
  8
0
100
AcDbLine
 10
-4031.885219863258
 20
1407.445406449956
 30
0.0
 11
-4021.654003477702
 21
1407.445406449956
 31
0.0
  0
LINE
  5
14A
330
17
100
AcDbEntity
  8
0
100
AcDbLine
 10
-4021.654003477702
 20
1407.445406449956
 30
0.0
 11
-4021.654003477702
 21
1399.471006449949
 31
0.0
  0
LINE
  5
14B
330
17
100
AcDbEntity
  8
YAZı1
 62
7
100
AcDbLine
 10
-4191.68256383402
 20
1395.352195815471
 30
0.0
 11
-4037.054003477702
 21
1395.352195815471
 31
0.0
  0
LINE
  5
14C
330
17
100
AcDbEntity
  8
YAZı1
 62
7
100
AcDbLine
 10
-4191.68256383402
 20
1399.339395815475
 30
0.0
 11
-4037.054003477702
 21
1399.339395815475
 31
0.0
  0
LINE
  5
14D
330
17
100
AcDbEntity
  8
YAZı1
 62
7
100
AcDbLine
 10
-4191.68256383402
 20
1391.364995815468
 30
0.0
 11
-4037.054003477702
 21
1391.364995815468
 31
0.0
  0
LINE
  5
14E
330
17
100
AcDbEntity
  8
YAZı1
 62
7
100
AcDbLine
 10
-4167.372174988998
 20
1391.364995815468
 30
0.0
 11
-4167.372174988998
 21
1399.339395815475
 31
0.0
  0
TEXT
  5
14F
330
17
100
AcDbEntity
  8
YAZı1
 62
7
100
AcDbText
 10
-4164.356623334021
 20
1396.377133957008
 30
0.0
 40
1.993599999999999
  1
Askı Tipi
  7
STYLE1
100
AcDbText
  0
LINE
  5
150
330
17
100
AcDbEntity
  8
YAZı1
 62
7
100
AcDbLine
 10
-4191.68256383402
 20
1391.364995815468
 30
0.0
 11
-4191.68256383402
 21
1399.339395815475
 31
0.0
  0
TEXT
  5
151
330
17
100
AcDbEntity
  8
YAZı1
 62
7
100
AcDbText
 10
-4190.49182703461
 20
1396.345552982689
 30
0.0
 40
1.993599999999999
  1
Asansör Sınıfı
  7
STYLE1
100
AcDbText
  0
LINE
  5
152
330
17
100
AcDbEntity
  8
YAZı1
 62
7
100
AcDbLine
 10
-4118.126692271867
 20
1391.364995815468
 30
0.0
 11
-4118.126692271867
 21
1399.339395815475
 31
0.0
  0
TEXT
  5
153
330
17
100
AcDbEntity
  8
YAZı1
 62
7
100
AcDbText
 10
-4116.851788342586
 20
1396.377133957008
 30
0.0
 40
1.993599999999999
  1
Tahrik Cinsi
  7
STYLE1
100
AcDbText
  0
LINE
  5
154
330
17
100
AcDbEntity
  8
YAZı1
 62
7
100
AcDbLine
 10
-4147.387884407738
 20
1391.364995815468
 30
0.0
 11
-4147.387884407738
 21
1399.339395815475
 31
0.0
  0
TEXT
  5
155
330
17
100
AcDbEntity
  8
YAZı1
 62
7
100
AcDbText
 10
-4143.131261884845
 20
1396.377133957008
 30
0.0
 40
1.993599999999999
  1
Asansör Sayısı
  7
STYLE1
100
AcDbText
  0
LINE
  5
156
330
17
100
AcDbEntity
  8
YAZı1
 62
7
100
AcDbLine
 10
-4098.519007373897
 20
1391.364995815468
 30
0.0
 11
-4098.519007373897
 21
1399.339395815475
 31
0.0
  0
TEXT
  5
157
330
17
100
AcDbEntity
  8
YAZı1
 62
7
100
AcDbText
 10
-4094.881252590552
 20
1396.377133957008
 30
0.0
 40
1.993599999999999
  1
Ray Ölçüsü
  7
STYLE1
100
AcDbText
  0
LINE
  5
158
330
17
100
AcDbEntity
  8
YAZı1
 62
7
100
AcDbLine
 10
-4070.193843747996
 20
1391.364995815468
 30
0.0
 11
-4070.193843747996
 21
1399.339395815475
 31
0.0
  0
LINE
  5
159
330
17
100
AcDbEntity
  8
0
100
AcDbLine
 10
-4098.519007373897
 20
1395.352195815471
 30
0.0
 11
-4084.519007373898
 21
1395.352195815471
 31
0.0
  0
LINE
  5
15A
330
17
100
AcDbEntity
  8
0
100
AcDbLine
 10
-4098.519007373897
 20
1395.352195815471
 30
0.0
 11
-4084.519007373898
 21
1395.352195815471
 31
0.0
  0
LINE
  5
15B
330
17
100
AcDbEntity
  8
YAZı1
 62
7
100
AcDbLine
 10
-4191.572191190457
 20
1387.949718005663
 30
0.0
 11
-4037.054003477702
 21
1387.949718005663
 31
0.0
  0
LINE
  5
15C
330
17
100
AcDbEntity
  8
YAZı1
 62
7
100
AcDbLine
 10
-4191.572191190457
 20
1383.96251800566
 30
0.0
 11
-4037.054003477702
 21
1383.962518005662
 31
0.0
  0
LINE
  5
15D
330
17
100
AcDbEntity
  8
YAZı1
 62
7
100
AcDbLine
 10
-4169.261802345436
 20
1383.96251800566
 30
0.0
 11
-4169.261802345436
 21
1391.364995815468
 31
0.0
  0
TEXT
  5
15E
330
17
100
AcDbEntity
  8
YAZı1
 62
7
100
AcDbText
 10
-4190.381454391047
 20
1388.943075172881
 30
0.0
 40
1.993599999999999
  1
M. Motor Gücü
  7
STYLE1
100
AcDbText
  0
LINE
  5
15F
330
17
100
AcDbEntity
  8
YAZı1
 62
7
100
AcDbLine
 10
-4118.016319628305
 20
1383.96251800566
 30
0.0
 11
-4118.016319628305
 21
1391.936918005666
 31
0.0
  0
TEXT
  5
160
330
17
100
AcDbEntity
  8
YAZı1
 62
7
100
AcDbText
 10
-4168.058040222009
 20
1388.974656147201
 30
0.0
 40
1.993599999999999
  1
Ölçek
  7
STYLE1
100
AcDbText
  0
LINE
  5
161
330
17
100
AcDbEntity
  8
YAZı1
 62
7
100
AcDbLine
 10
-4147.477511764175
 20
1383.96251800566
 30
0.0
 11
-4147.477511764175
 21
1391.936918005666
 31
0.0
  0
LINE
  5
162
330
17
100
AcDbEntity
  8
YAZı1
 62
7
100
AcDbLine
 10
-4098.408634730335
 20
1383.96251800566
 30
0.0
 11
-4098.408634730335
 21
1391.936918005666
 31
0.0
  0
LINE
  5
163
330
17
100
AcDbEntity
  8
YAZı1
 62
7
100
AcDbLine
 10
-4070.083471104433
 20
1383.96251800566
 30
0.0
 11
-4070.083471104433
 21
1391.936918005666
 31
0.0
  0
LINE
  5
164
330
17
100
AcDbEntity
  8
0
100
AcDbLine
 10
-4098.408634730335
 20
1387.949718005663
 30
0.0
 11
-4084.408634730335
 21
1387.949718005663
 31
0.0
  0
LINE
  5
165
330
17
100
AcDbEntity
  8
0
100
AcDbLine
 10
-4098.408634730335
 20
1387.949718005663
 30
0.0
 11
-4084.408634730335
 21
1387.949718005663
 31
0.0
  0
LINE
  5
166
330
17
100
AcDbEntity
  8
0
100
AcDbLine
 10
-4021.054003477702
 20
1407.924118005664
 30
0.0
 11
-4037.054003477702
 21
1407.924118005664
 31
0.0
  0
LINE
  5
167
330
17
100
AcDbEntity
  8
0
100
AcDbLine
 10
-4037.054003477702
 20
1407.924118005664
 30
0.0
 11
-4037.054003477702
 21
1382.965718005661
 31
0.0
  0
LINE
  5
168
330
17
100
AcDbEntity
  8
0
100
AcDbLine
 10
-4021.654003477702
 20
1399.471006449949
 30
0.0
 11
-4021.654003477702
 21
1382.965718005661
 31
0.0
  0
TEXT
  5
169
330
17
100
AcDbEntity
  8
YAZı1
 62
7
100
AcDbText
 10
-4204.372911572161
 20
1338.62558686013
 30
0.0
 40
2.267201663999999
  1
İMZASI
 50
90.0
  7
STYLE1
100
AcDbText
  0
TEXT
  5
16A
330
17
100
AcDbEntity
  8
YAZı1
 62
7
100
AcDbText
 10
-4104.707046621669
 20
1338.63360482573
 30
0.0
 40
2.267201663999999
  1
İMZASI
 50
90.0
  7
STYLE1
100
AcDbText
  0
TEXT
  5
16B
330
17
100
AcDbEntity
  8
YAZı1
 62
7
100
AcDbText
 10
-4116.796693630954
 20
1227.057004026224
 30
0.0
 40
2.267201663999999
  1
İMZASI
 50
90.0
  7
STYLE1
100
AcDbText
  0
TEXT
  5
16C
330
17
100
AcDbEntity
  8
YAZı1
 62
7
100
AcDbText
 10
-4208.43807656845
 20
1273.571283647806
 30
0.0
 40
2.39232
  1
MİMARİ PROJE AVAN PROJE UYGUNLUĞU GÖRÜLDÜ
  7
STYLE1
100
AcDbText
  0
TEXT
  5
16D
330
17
100
AcDbEntity
  8
0
 62
1
100
AcDbText
 10
-4169.414668554171
 20
1384.85724757173
 30
0.0
 40
2.254943749999999
  1
1/20 1/30 1/50  
  7
ASL
100
AcDbText
  0
TEXT
  5
16E
330
17
100
AcDbEntity
  8
0
 62
1
100
AcDbText
 10
-4063.533359365546
 20
1400.367552472806
 30
0.0
 40
2.254943749999999
  1
TS EN 81-20
  7
ASL
100
AcDbText
  0
TEXT
  5
16F
330
17
100
AcDbEntity
  8
0
 62
1
100
AcDbText
 10
-4134.577999734871
 20
1392.271138596233
 30
0.0
 40
2.254943749999999
  1
1
  7
ASL
100
AcDbText
  0
TEXT
  5
170
330
17
100
AcDbEntity
  8
0
 62
1
100
AcDbText
 10
-4115.055285218039
 20
1392.377709297884
 30
0.0
 40
2.254943749999999
  1
Elektrikli
  7
ASL
100
AcDbText
  0
TEXT
  5
171
330
17
100
AcDbEntity
  8
0
 62
1
100
AcDbText
 10
-4162.330325048229
 20
1392.029458303147
 30
0.0
 40
2.742306774006512
  1
2:1
  7
ASL
100
AcDbText
  0
TEXT
  5
172
330
17
100
AcDbEntity
  8
0
 62
1
100
AcDbText
 10
-4091.827997071765
 20
1392.550479209536
 30
0.0
 40
1.803955
  1
70*70*9
  7
ASL
100
AcDbText
  0
MTEXT
  5
173
330
17
100
AcDbEntity
  8
0
100
AcDbMText
 10
-4211.67326870105
 20
1753.913332318932
 30
0.0
 40
2.8
 41
196.639823973841
 46
0.0
 71
1
 72
5
  3
{\fTimes New Roman|b0|i0|c162|p18;ASANSÖR MONTAJINDAN SORUMLU FİRMAYA AİT İŞLER\PTeklifte belirtilen asansör malzemelerinin tamamı, belirtilen şekilde kullanılacaktır.\PAsansör montajı, inşaatın yapım seyrine uygun sürede yapılacaktır.\PAsansör monta
  3
jı esnasında olabilecek iş kazalarından, asansör montajı ile ilgisi olmayan kişilerin kuyu boşluğunda ve diğer asansör  montajı alanında uğrayacakları kaza ve diğer durumlardan asansör montaj firması sorumlu değildir.  \PAsansör montajı ekteki standa
  3
rt ve özelliklerde yapılacaktır.\PAsansör projesi ve masrafları asansör yaptırıcısına aittir. . \PAsansör firması yönetmeliğe uygun montaj yapmak ve tescile hazır hale getirmekle yükümlüdür.\P\PASANSÖR MONTAJI YAPILAN İNŞAAT FİRMASINA AİT İŞLER\PDuva
  3
r, beton, sıva, boya, elektrik, topraklama, demir, kırma, iskele işleri ve tadilatlar. \PKalıp için gerekli malzemeler, kum, çimento, alçı, çivi vs. \PTSE ve Belediye isteği doğrultusunda kuyu ve makine dairesinin uygun yapılması.  \PBelediyeden asan
  3
sör tescil belgesinin alınması için gerekli olan ruhsat harçları, asansör yaptırıcısına aittir.\PBina şebekesinden hariç istenen topraklama levhası veya çubuğu.  \P\P\LDİĞER HUSUSLAR\l\PYetkili servis dışında yapılacak müdahalelerde ve bunun sonucu o
  3
labilecek arıza. \PZorlama, kurcalanma ve darbeden doğan arızalar.\PYangın ve doğal afetler.\Pİşletme talimatına uyulmaması gibi durumlarda sorumluluk asansör monte edene ait olmayacaktır.\PTaraflar arasında ek sözleşme ve şartlar oluşturulabilir.\P\
  3
LUYULMASI GEREKEN YÖNETMELİKLER\l\P}2014 33 AB Yönetmeliği uygulanacaktır.\PTS EN 81-20 Standardı uygulanacaktır.\PTS EN 81-70 Engelli Yönetmeliğine uygun yapılacaktır.\PTS EN 81-58  TS EN 81-73 Yangın mevzuatına uygun olarak yapılacaktır.\P\PAYDINLA
  3
TMA\PElektrik Tesisat projesine uygun yapılacaktır.\PMakine dairesi aydınlatması 200 lüx şiddetinde olmalıdır.\PAsansör kuyusunda, durak kapıları kapalı olsa dahi kabin tavanının düşey izdüşümü içerisinde ve döşemenin 1 m üstünde en az 50 lüx şiddeti
  3
nde bir aydınlatma sağlanmalıdır.\PAsansör kuyusunda kabin veya bileşenlerin oluşturduğu gölgelerin haricinde, madde 5.2.1.4.1 a)’da ve b)’de belirtilen yerlerin dışında en az 20 lüx aydınlatma sağlanmalıdır.\PKabin içi aydınlatması en az 100 lüx şid
  3
detinde olmalıdır.\PDurak kapıları çevresinde ve geçiş yollarında 50 lüx aydınlatma olmalıdır.{\fTimes New Roman|b0|i0|c162|p18;\P\PBİNALARIN YANGINDAN KORUNMASI HAKKINDA YÖNETMELİK \Pkapsamında ülkemizde yapı malzemeleri için benimsenen yangına tepk
  3
i sınıflandırması TS EN 13501-1 standardı uygulanmalıdır.\PKabinde kullanılan bazı malzemelerde alev almazlık gereksinimi, [5.4.4]\PKabin gövdesinin yapı desteklemesi, alev almaz malzemelerden yapılmalıdır. Kabin zemini, duvar ve tavan kaplama malzem
  3
eleri, aşağıda listelendiği gibi TS EN 13501-1’in gereklerine uygun olmalıdır:\PZemin kaplaması: C fl -s2;\PDuvar: C-s2, d1;\PTavan: C-s2, d0.\PBoya rötuşları, duvar üzerindeki 0,30 mm’ ye kadar lamineler ve çalıştırma tertibatı gibi donanımlar, aydı
  3
nlatma ve göstergeler yukarıdaki gereklerden hariç tutulmuştur.\PKabin havalandırması ile ilgili uyulması gerekenler\P\PKABİN HAVALANDIRMASI HAKKINDA\P\fArial Unicode MS|b1|i0|c162|p34;5.4.9.2 }Kabinin üst kısmında yer alan havalandırma kanallarının 
  3
(menfezlerinin) etkin alanı, kullanılabilir kabin\Palanının en az % 1’fi olmalı ve bu değer kabinin alt kısmındaki kanallara da uygulanmalıdır.\PKabin kapısı etrafındaki açıklıklar, havalandırma deliklerinin alanının hesaplanmasında, gerekli olan etk
  3
in alanın % 50’fsine kadar hesaba katılabilir.\P{\fArial Unicode MS|b1|i0|c162|p34;5.4.9.3 }Havalandırma deliklerinin yapım ve düzenlenmesi, 10 mm çapında düz ve yuvarlak rijit bir çubuğun, içeriden kabin duvarları boyunca geçirilmesi mümkün olmayaca
  1
k bir şekilde olmalıdır.
  7
LD
1001
ACAD
1000
ACAD_MTEXT_COLUMN_INFO_BEGIN
1070
75
1070
2
1070
79
1070
0
1070
76
1070
1
1070
78
1070
0
1070
48
1040
196.639823973841
1070
49
1040
24.0
1070
50
1070
1
1040
0.0
1000
ACAD_MTEXT_COLUMN_INFO_END
1000
ACAD_MTEXT_COLUMNS_BEGIN
1070
47
1070
1
1000
ACAD_MTEXT_COLUMNS_END
  0
TEXT
  5
174
330
17
100
AcDbEntity
  8
0
 62
1
100
AcDbText
 10
-4092.768487808998
 20
1400.325458109898
 30
0.0
 40
2.149010601547069
  1
950
  7
ASL
100
AcDbText
  0
TEXT
  5
175
330
17
100
AcDbEntity
  8
0
 62
1
100
AcDbText
 10
-4188.706578681781
 20
1400.671049904619
 30
0.0
 40
1.792324072020903
  1
300 KG (4 KİŞİ)
  7
ASL
100
AcDbText
  0
TEXT
  5
176
330
17
100
AcDbEntity
  8
0
 62
1
100
AcDbText
 10
-4161.969524805175
 20
1400.671049904619
 30
0.0
 40
1.792324072020903
  1
1,00 m/sn
  7
ASL
100
AcDbText
  0
TEXT
  5
177
330
17
100
AcDbEntity
  8
0
 62
1
100
AcDbText
 10
-4143.159923637062
 20
1400.671049904619
 30
0.0
 40
1.792324072020903
  1
0,1/2 DURAK
  7
ASL
100
AcDbText
  0
TEXT
  5
178
330
17
100
AcDbEntity
  8
0
 62
1
100
AcDbText
 10
-4112.139619617213
 20
1400.671049904619
 30
0.0
 40
1.792324072020903
  1
3500
  7
ASL
100
AcDbText
  0
TEXT
  5
179
330
17
100
AcDbEntity
  8
0
 62
1
100
AcDbText
 10
-4078.296185015401
 20
1400.451463746902
 30
0.0
 40
2.149010601547069
  1
950
  7
ASL
100
AcDbText
  0
TEXT
  5
17A
330
17
100
AcDbEntity
  8
0
 62
1
100
AcDbText
 10
-4187.521732646716
 20
1391.993085196594
 30
0.0
 40
2.09649567537739
  1
Sınıf I
  7
ASL
100
AcDbText
  0
LINE
  5
17B
330
17
100
AcDbEntity
  8
YAZı1
 62
7
100
AcDbLine
 10
-4191.68256383402
 20
1391.364995815468
 30
0.0
 11
-4037.054003477702
 21
1391.364995815468
 31
0.0
  0
LINE
  5
17C
330
17
100
AcDbEntity
  8
0
100
AcDbLine
 10
-4055.968528421963
 20
1395.352195815471
 30
0.0
 11
-4055.968528421963
 21
1391.364995815468
 31
0.0
  0
TEXT
  5
17D
330
17
100
AcDbEntity
  8
0
 62
1
100
AcDbText
 10
-4185.563173781326
 20
1385.174378553731
 30
0.0
 40
2.09649567537739
  1
2,67 KW
  7
ASL
100
AcDbText
  0
LINE
  5
17E
330
17
100
AcDbEntity
  8
YAZı1
 62
7
100
AcDbLine
 10
-4107.341373812096
 20
1354.970436103835
 30
0.0
 11
-4015.046137266723
 21
1354.970436103835
 31
0.0
  0
LINE
  5
17F
330
17
100
AcDbEntity
  8
YAZı1
 62
7
100
AcDbLine
 10
-4107.765995996159
 20
1358.950485535912
 30
0.0
 11
-4018.857203477702
 21
1358.957636103832
 31
0.0
  0
LINE
  5
180
330
17
100
AcDbEntity
  8
YAZı1
 62
7
100
AcDbLine
 10
-4107.766317242573
 20
1362.944801927387
 30
0.0
 11
-4018.857203477702
 21
1362.944836103836
 31
0.0
  0
LINE
  5
181
330
17
100
AcDbEntity
  8
YAZı1
 62
7
100
AcDbLine
 10
-4107.766637344297
 20
1366.924885484332
 30
0.0
 11
-4018.857203477702
 21
1366.932036103833
 31
0.0
  0
LINE
  5
182
330
17
100
AcDbEntity
  8
YAZı1
 62
7
100
AcDbLine
 10
-4107.765675894435
 20
1354.970401978961
 30
0.0
 11
-4018.857203477702
 21
1354.970436103835
 31
0.0
  0
LINE
  5
183
330
17
100
AcDbEntity
  8
YAZı1
 62
7
100
AcDbLine
 10
-4107.766958018365
 20
1370.912085458539
 30
0.0
 11
-4018.857203477702
 21
1370.91923610383
 31
0.0
  0
LINE
  5
184
330
17
100
AcDbEntity
  8
0
100
AcDbLine
 10
-4012.49004244451
 20
1448.305420727765
 30
0.0
 11
-4012.49004244451
 21
1759.432969946652
 31
0.0
  0
LINE
  5
185
330
17
100
AcDbEntity
  8
0
100
AcDbLine
 10
-1860.633260835271
 20
1759.432969946652
 30
0.0
 11
-973.8203411352806
 21
1759.432969946652
 31
0.0
  0
LINE
  5
186
330
17
100
AcDbEntity
  8
YAZı1
 62
7
100
AcDbLine
 10
-4121.492173054443
 20
1194.491808345298
 30
-150033770.4027571
 11
-4121.492173054443
 21
1194.495008345298
 31
-150033770.4027571
  0
LINE
  5
187
330
17
100
AcDbEntity
  8
YAZı1
 62
7
100
AcDbLine
 10
-4121.492173054443
 20
1194.491808345298
 30
-150033770.4027571
 11
-4121.492173054443
 21
1194.495008345298
 31
-150033770.4027571
  0
LINE
  5
188
330
17
100
AcDbEntity
  8
0
100
AcDbLine
 10
-973.8203411352806
 20
1159.432969946652
 30
0.0
 11
-973.8203411352806
 21
1759.432969946652
 31
0.0
  0
ENDSEC
  0
SECTION
  2
OBJECTS
  0
DICTIONARY
  5
A
330
0
100
AcDbDictionary
281
1
  3
ACAD_COLOR
350
B
  3
ACAD_GROUP
350
C
  3
ACAD_LAYOUT
350
D
  3
ACAD_MATERIAL
350
E
  3
ACAD_MLEADERSTYLE
350
F
  3
ACAD_MLINESTYLE
350
10
  3
ACAD_PLOTSETTINGS
350
11
  3
ACAD_PLOTSTYLENAME
350
12
  3
ACAD_SCALELIST
350
14
  3
ACAD_TABLESTYLE
350
15
  3
ACAD_VISUALSTYLE
350
16
  3
EZDXF_META
350
2D
  0
DICTIONARY
  5
B
330
A
100
AcDbDictionary
281
1
  0
DICTIONARY
  5
C
330
A
100
AcDbDictionary
281
1
  0
DICTIONARY
  5
D
330
A
100
AcDbDictionary
281
1
  3
Model
350
1A
  3
Layout1
350
1E
  0
DICTIONARY
  5
E
330
A
100
AcDbDictionary
281
1
  3
ByBlock
350
1F
  3
ByLayer
350
20
  3
Global
350
21
  0
DICTIONARY
  5
F
330
A
100
AcDbDictionary
281
1
  3
Standard
350
2C
  0
DICTIONARY
  5
10
330
A
100
AcDbDictionary
281
1
  3
Standard
350
22
  0
DICTIONARY
  5
11
330
A
100
AcDbDictionary
281
1
  0
ACDBDICTIONARYWDFLT
  5
12
330
A
100
AcDbDictionary
281
1
  3
Normal
350
13
100
AcDbDictionaryWithDefault
340
13
  0
ACDBPLACEHOLDER
  5
13
330
12
  0
DICTIONARY
  5
14
330
A
100
AcDbDictionary
281
1
  0
DICTIONARY
  5
15
330
A
100
AcDbDictionary
281
1
  0
DICTIONARY
  5
16
330
A
100
AcDbDictionary
281
1
  3
2dWireframe
350
5A
  3
Basic
350
5B
  3
Brighten
350
5C
  3
ColorChange
350
5D
  3
Conceptual
350
5E
  3
Dim
350
5F
  3
EdgeColorOff
350
60
  3
Facepattern
350
61
  3
Flat
350
62
  3
FlatWithEdges
350
63
  3
Gouraud
350
64
  3
GouraudWithEdges
350
65
  3
Hidden
350
66
  3
JitterOff
350
67
  3
Linepattern
350
68
  3
Modeling
350
69
  3
OverhangOff
350
6A
  3
Realistic
350
6B
  3
Shaded
350
6C
  3
Shaded with edges
350
6D
  3
Shades of Gray
350
6E
  3
Sketchy
350
6F
  3
Thicken
350
70
  3
Wireframe
350
71
  3
X-Ray
350
72
  0
LAYOUT
  5
1A
330
D
100
AcDbPlotSettings
  1

  4
A3
  6

 40
7.5
 41
20.0
 42
7.5
 43
20.0
 44
420.0
 45
297.0
 46
0.0
 47
0.0
 48
0.0
 49
0.0
140
0.0
141
0.0
142
1.0
143
1.0
 70
1024
 72
1
 73
0
 74
5
  7

 75
16
 76
0
 77
2
 78
300
147
1.0
148
0.0
149
0.0
100
AcDbLayout
  1
Model
 70
1
 71
0
 10
0.0
 20
0.0
 11
420.0
 21
297.0
 12
0.0
 22
0.0
 32
0.0
 14
1e+20
 24
1e+20
 34
1e+20
 15
-1e+20
 25
-1e+20
 35
-1e+20
146
0.0
 13
0.0
 23
0.0
 33
0.0
 16
1.0
 26
0.0
 36
0.0
 17
0.0
 27
1.0
 37
0.0
 76
1
330
17
  0
LAYOUT
  5
1E
330
D
100
AcDbPlotSettings
  1

  4
A3
  6

 40
7.5
 41
20.0
 42
7.5
 43
20.0
 44
420.0
 45
297.0
 46
0.0
 47
0.0
 48
0.0
 49
0.0
140
0.0
141
0.0
142
1.0
143
1.0
 70
0
 72
1
 73
0
 74
5
  7

 75
16
 76
0
 77
2
 78
300
147
1.0
148
0.0
149
0.0
100
AcDbLayout
  1
Layout1
 70
1
 71
1
 10
0.0
 20
0.0
 11
420.0
 21
297.0
 12
0.0
 22
0.0
 32
0.0
 14
1e+20
 24
1e+20
 34
1e+20
 15
-1e+20
 25
-1e+20
 35
-1e+20
146
0.0
 13
0.0
 23
0.0
 33
0.0
 16
1.0
 26
0.0
 36
0.0
 17
0.0
 27
1.0
 37
0.0
 76
1
330
1B
  0
MATERIAL
  5
1F
102
{ACAD_REACTORS
330
E
102
}
330
E
100
AcDbMaterial
  1
ByBlock
  2

 70
0
 40
1.0
 71
1
 41
1.0
 91
-1023410177
 42
1.0
 72
1
  3

 73
1
 74
1
 75
1
 44
0.5
 73
0
 45
1.0
 46
1.0
 77
1
  4

 78
1
 79
1
170
1
 48
1.0
171
1
  6

172
1
173
1
174
1
140
1.0
141
1.0
175
1
  7

176
1
177
1
178
1
143
1.0
179
1
  8

270
1
271
1
272
1
145
1.0
146
1.0
273
1
  9

274
1
275
1
276
1
 42
1.0
 72
1
  3

 73
1
 74
1
 75
1
 94
63
  0
MATERIAL
  5
20
102
{ACAD_REACTORS
330
E
102
}
330
E
100
AcDbMaterial
  1
ByLayer
  2

 70
0
 40
1.0
 71
1
 41
1.0
 91
-1023410177
 42
1.0
 72
1
  3

 73
1
 74
1
 75
1
 44
0.5
 73
0
 45
1.0
 46
1.0
 77
1
  4

 78
1
 79
1
170
1
 48
1.0
171
1
  6

172
1
173
1
174
1
140
1.0
141
1.0
175
1
  7

176
1
177
1
178
1
143
1.0
179
1
  8

270
1
271
1
272
1
145
1.0
146
1.0
273
1
  9

274
1
275
1
276
1
 42
1.0
 72
1
  3

 73
1
 74
1
 75
1
 94
63
  0
MATERIAL
  5
21
102
{ACAD_REACTORS
330
E
102
}
330
E
100
AcDbMaterial
  1
Global
  2

 70
0
 40
1.0
 71
1
 41
1.0
 91
-1023410177
 42
1.0
 72
1
  3

 73
1
 74
1
 75
1
 44
0.5
 73
0
 45
1.0
 46
1.0
 77
1
  4

 78
1
 79
1
170
1
 48
1.0
171
1
  6

172
1
173
1
174
1
140
1.0
141
1.0
175
1
  7

176
1
177
1
178
1
143
1.0
179
1
  8

270
1
271
1
272
1
145
1.0
146
1.0
273
1
  9

274
1
275
1
276
1
 42
1.0
 72
1
  3

 73
1
 74
1
 75
1
 94
63
  0
MLINESTYLE
  5
22
102
{ACAD_REACTORS
330
10
102
}
330
10
100
AcDbMlineStyle
  2
Standard
 70
0
  3

 62
256
 51
90.0
 52
90.0
 71
2
 49
0.5
 62
256
  6
BYLAYER
 49
-0.5
 62
256
  6
BYLAYER
  0
MLEADERSTYLE
  5
2C
102
{ACAD_REACTORS
330
F
102
}
330
F
100
AcDbMLeaderStyle
179
2
170
2
171
1
172
0
 90
2
 40
0.0
 41
0.0
173
1
 91
-1056964608
 92
-2
290
1
 42
2.0
291
1
 43
8.0
  3
Standard
 44
4.0
300

342
29
174
1
175
1
176
0
178
1
 93
-1056964608
 45
4.0
292
0
297
0
 46
4.0
 94
-1056964608
 47
1.0
 49
1.0
140
1.0
294
1
141
0.0
177
0
142
1.0
295
0
296
0
143
3.75
271
0
272
9
273
9
  0
DICTIONARY
  5
2D
330
A
100
AcDbDictionary
280
1
281
1
  3
CREATED_BY_EZDXF
350
2E
  3
WRITTEN_BY_EZDXF
350
195
  0
DICTIONARYVAR
  5
2E
330
2D
100
DictionaryVariables
280
0
  1
1.4.4 @ 2026-09-02T19:28:24.164093+00:00
  0
VISUALSTYLE
  5
5A
102
{ACAD_REACTORS
330
16
102
}
330
16
100
AcDbVisualStyle
  2
2dWireframe
 70
4
177
3
291
0
 70
58
 90
2
176
1
 90
2
176
1
 90
0
176
1
 90
0
176
1
 40
0.6
176
1
 40
30.0
176
1
 62
7
420
16777215
176
1
 90
1
176
1
 90
4
176
1
 62
7
176
1
 62
257
176
1
 90
1
176
1
 90
1
176
1
 40
1.0
176
1
 90
8
176
1
 62
7
176
1
 40
1.0
176
1
 90
1
176
1
 90
6
176
1
 90
2
176
1
 62
7
176
1
 90
5
176
1
 90
0
176
1
 90
0
176
1
290
0
176
1
 90
1
176
1
 40
0.0
176
1
 90
0
176
1
290
1
176
1
290
1
176
1
290
0
176
1
290
0
176
1
290
0
176
1
290
0
176
1
290
0
176
1
290
0
176
1
290
0
176
1
 90
50
176
1
 40
0.0
176
1
 40
1.0
176
1
 90
0
176
1
 62
18
420
0
176
1
 90
50
176
1
 90
3
176
1
 62
5
420
255
176
1
290
0
176
1
 90
50
176
1
 90
50
176
1
 90
50
176
1
290
0
176
1
 90
50
176
1
 62
256
176
0
 40
1.0
176
0
 90
2
176
1
  1
strokes_ogs.tif
176
1
290
0
176
1
 40
1.0
176
1
 40
1.0
176
1
  0
VISUALSTYLE
  5
5B
102
{ACAD_REACTORS
330
16
102
}
330
16
100
AcDbVisualStyle
  2
Basic
 70
7
177
3
291
1
 70
58
 90
2
176
1
 90
2
176
1
 90
0
176
1
 90
1
176
1
 40
0.6
176
1
 40
30.0
176
1
 62
7
420
16777215
176
1
 90
1
176
1
 90
4
176
1
 62
7
176
1
 62
257
176
1
 90
1
176
1
 90
1
176
1
 40
1.0
176
1
 90
8
176
1
 62
7
176
1
 40
1.0
176
1
 90
1
176
1
 90
6
176
1
 90
2
176
1
 62
7
176
1
 90
5
176
1
 90
0
176
1
 90
0
176
1
290
0
176
1
 90
1
176
1
 40
0.0
176
1
 90
0
176
1
290
0
176
1
290
1
176
1
290
1
176
1
290
0
176
1
290
0
176
1
290
0
176
1
290
0
176
1
290
0
176
1
290
0
176
1
 90
50
176
1
 40
0.0
176
1
 40
1.0
176
1
 90
0
176
1
 62
18
420
0
176
1
 90
50
176
1
 90
3
176
1
 62
5
420
255
176
1
290
0
176
1
 90
50
176
1
 90
50
176
1
 90
50
176
1
290
0
176
1
 90
50
176
1
 62
256
176
0
 40
1.0
176
0
 90
2
176
1
  1
strokes_ogs.tif
176
1
290
0
176
1
 40
1.0
176
1
 40
1.0
176
1
  0
VISUALSTYLE
  5
5C
102
{ACAD_REACTORS
330
16
102
}
330
16
100
AcDbVisualStyle
  2
Brighten
 70
12
177
3
291
1
 70
58
 90
2
176
1
 90
2
176
1
 90
0
176
1
 90
2
176
1
 40
0.6
176
1
 40
30.0
176
1
 62
7
420
16777215
176
1
 90
1
176
1
 90
4
176
1
 62
7
176
1
 62
257
176
1
 90
1
176
1
 90
1
176
1
 40
1.0
176
1
 90
8
176
1
 62
7
176
1
 40
1.0
176
1
 90
1
176
1
 90
6
176
1
 90
2
176
1
 62
7
176
1
 90
5
176
1
 90
0
176
1
 90
0
176
1
290
0
176
1
 90
1
176
1
 40
0.0
176
1
 90
0
176
1
290
0
176
1
290
1
176
1
290
1
176
1
290
0
176
1
290
0
176
1
290
0
176
1
290
0
176
1
290
0
176
1
290
0
176
1
 90
50
176
1
 40
0.0
176
1
 40
1.0
176
1
 90
0
176
1
 62
18
420
0
176
1
 90
50
176
1
 90
3
176
1
 62
5
420
255
176
1
290
0
176
1
 90
50
176
1
 90
50
176
1
 90
50
176
1
290
0
176
1
 90
50
176
1
 62
256
176
0
 40
1.0
176
0
 90
2
176
1
  1
strokes_ogs.tif
176
1
290
0
176
1
 40
1.0
176
1
 40
1.0
176
1
  0
VISUALSTYLE
  5
5D
102
{ACAD_REACTORS
330
16
102
}
330
16
100
AcDbVisualStyle
  2
ColorChange
 70
16
177
3
291
1
 70
58
 90
2
176
1
 90
2
176
1
 90
0
176
1
 90
2
176
1
 40
0.6
176
1
 40
30.0
176
1
 62
7
420
16777215
176
1
 90
1
176
1
 90
4
176
1
 62
7
176
1
 62
257
176
1
 90
1
176
1
 90
1
176
1
 40
1.0
176
1
 90
8
176
1
 62
7
176
1
 40
1.0
176
1
 90
1
176
1
 90
6
176
1
 90
2
176
1
 62
7
176
1
 90
5
176
1
 90
0
176
1
 90
0
176
1
290
0
176
1
 90
1
176
1
 40
0.0
176
1
 90
0
176
1
290
0
176
1
290
1
176
1
290
1
176
1
290
0
176
1
290
0
176
1
290
0
176
1
290
0
176
1
290
0
176
1
290
0
176
1
 90
50
176
1
 40
0.0
176
1
 40
1.0
176
1
 90
0
176
1
 62
18
420
0
176
1
 90
50
176
1
 90
3
176
1
 62
5
420
255
176
1
290
0
176
1
 90
50
176
1
 90
50
176
1
 90
50
176
1
290
0
176
1
 90
50
176
1
 62
256
176
0
 40
1.0
176
0
 90
2
176
1
  1
strokes_ogs.tif
176
1
290
0
176
1
 40
1.0
176
1
 40
1.0
176
1
  0
VISUALSTYLE
  5
5E
102
{ACAD_REACTORS
330
16
102
}
330
16
100
AcDbVisualStyle
  2
Conceptual
 70
9
177
3
291
0
 70
58
 90
2
176
1
 90
2
176
1
 90
0
176
1
 90
3
176
1
 40
0.6
176
1
 40
30.0
176
1
 62
7
420
16777215
176
1
 90
1
176
1
 90
4
176
1
 62
7
176
1
 62
257
176
1
 90
1
176
1
 90
1
176
1
 40
1.0
176
1
 90
8
176
1
 62
7
176
1
 40
1.0
176
1
 90
1
176
1
 90
6
176
1
 90
2
176
1
 62
7
176
1
 90
5
176
1
 90
0
176
1
 90
0
176
1
290
0
176
1
 90
1
176
1
 40
0.0
176
1
 90
0
176
1
290
0
176
1
290
1
176
1
290
1
176
1
290
0
176
1
290
0
176
1
290
0
176
1
290
0
176
1
290
0
176
1
290
0
176
1
 90
50
176
1
 40
0.0
176
1
 40
1.0
176
1
 90
0
176
1
 62
18
420
0
176
1
 90
50
176
1
 90
3
176
1
 62
5
420
255
176
1
290
0
176
1
 90
50
176
1
 90
50
176
1
 90
50
176
1
290
0
176
1
 90
50
176
1
 62
256
176
0
 40
1.0
176
0
 90
2
176
1
  1
strokes_ogs.tif
176
1
290
0
176
1
 40
1.0
176
1
 40
1.0
176
1
  0
VISUALSTYLE
  5
5F
102
{ACAD_REACTORS
330
16
102
}
330
16
100
AcDbVisualStyle
  2
Dim
 70
11
177
3
291
1
 70
58
 90
2
176
1
 90
2
176
1
 90
0
176
1
 90
2
176
1
 40
0.6
176
1
 40
30.0
176
1
 62
7
420
16777215
176
1
 90
1
176
1
 90
4
176
1
 62
7
176
1
 62
257
176
1
 90
1
176
1
 90
1
176
1
 40
1.0
176
1
 90
8
176
1
 62
7
176
1
 40
1.0
176
1
 90
1
176
1
 90
6
176
1
 90
2
176
1
 62
7
176
1
 90
5
176
1
 90
0
176
1
 90
0
176
1
290
0
176
1
 90
1
176
1
 40
0.0
176
1
 90
0
176
1
290
0
176
1
290
1
176
1
290
1
176
1
290
0
176
1
290
0
176
1
290
0
176
1
290
0
176
1
290
0
176
1
290
0
176
1
 90
50
176
1
 40
0.0
176
1
 40
1.0
176
1
 90
0
176
1
 62
18
420
0
176
1
 90
50
176
1
 90
3
176
1
 62
5
420
255
176
1
290
0
176
1
 90
50
176
1
 90
50
176
1
 90
50
176
1
290
0
176
1
 90
50
176
1
 62
256
176
0
 40
1.0
176
0
 90
2
176
1
  1
strokes_ogs.tif
176
1
290
0
176
1
 40
1.0
176
1
 40
1.0
176
1
  0
VISUALSTYLE
  5
60
102
{ACAD_REACTORS
330
16
102
}
330
16
100
AcDbVisualStyle
  2
EdgeColorOff
 70
22
177
3
291
1
 70
58
 90
2
176
1
 90
2
176
1
 90
0
176
1
 90
2
176
1
 40
0.6
176
1
 40
30.0
176
1
 62
7
420
16777215
176
1
 90
1
176
1
 90
4
176
1
 62
7
176
1
 62
257
176
1
 90
1
176
1
 90
1
176
1
 40
1.0
176
1
 90
8
176
1
 62
7
176
1
 40
1.0
176
1
 90
1
176
1
 90
6
176
1
 90
2
176
1
 62
7
176
1
 90
5
176
1
 90
0
176
1
 90
0
176
1
290
0
176
1
 90
1
176
1
 40
0.0
176
1
 90
0
176
1
290
0
176
1
290
1
176
1
290
1
176
1
290
0
176
1
290
0
176
1
290
0
176
1
290
0
176
1
290
0
176
1
290
0
176
1
 90
50
176
1
 40
0.0
176
1
 40
1.0
176
1
 90
0
176
1
 62
18
420
0
176
1
 90
50
176
1
 90
3
176
1
 62
5
420
255
176
1
290
0
176
1
 90
50
176
1
 90
50
176
1
 90
50
176
1
290
0
176
1
 90
50
176
1
 62
256
176
0
 40
1.0
176
0
 90
2
176
1
  1
strokes_ogs.tif
176
1
290
0
176
1
 40
1.0
176
1
 40
1.0
176
1
  0
VISUALSTYLE
  5
61
102
{ACAD_REACTORS
330
16
102
}
330
16
100
AcDbVisualStyle
  2
Facepattern
 70
15
177
3
291
1
 70
58
 90
2
176
1
 90
2
176
1
 90
0
176
1
 90
2
176
1
 40
0.6
176
1
 40
30.0
176
1
 62
7
420
16777215
176
1
 90
1
176
1
 90
4
176
1
 62
7
176
1
 62
257
176
1
 90
1
176
1
 90
1
176
1
 40
1.0
176
1
 90
8
176
1
 62
7
176
1
 40
1.0
176
1
 90
1
176
1
 90
6
176
1
 90
2
176
1
 62
7
176
1
 90
5
176
1
 90
0
176
1
 90
0
176
1
290
0
176
1
 90
1
176
1
 40
0.0
176
1
 90
0
176
1
290
0
176
1
290
1
176
1
290
1
176
1
290
0
176
1
290
0
176
1
290
0
176
1
290
0
176
1
290
0
176
1
290
0
176
1
 90
50
176
1
 40
0.0
176
1
 40
1.0
176
1
 90
0
176
1
 62
18
420
0
176
1
 90
50
176
1
 90
3
176
1
 62
5
420
255
176
1
290
0
176
1
 90
50
176
1
 90
50
176
1
 90
50
176
1
290
0
176
1
 90
50
176
1
 62
256
176
0
 40
1.0
176
0
 90
2
176
1
  1
strokes_ogs.tif
176
1
290
0
176
1
 40
1.0
176
1
 40
1.0
176
1
  0
VISUALSTYLE
  5
62
102
{ACAD_REACTORS
330
16
102
}
330
16
100
AcDbVisualStyle
  2
Flat
 70
0
177
3
291
1
 70
58
 90
2
176
1
 90
2
176
1
 90
0
176
1
 90
2
176
1
 40
0.6
176
1
 40
30.0
176
1
 62
7
420
16777215
176
1
 90
1
176
1
 90
4
176
1
 62
7
176
1
 62
257
176
1
 90
1
176
1
 90
1
176
1
 40
1.0
176
1
 90
8
176
1
 62
7
176
1
 40
1.0
176
1
 90
1
176
1
 90
6
176
1
 90
2
176
1
 62
7
176
1
 90
5
176
1
 90
0
176
1
 90
0
176
1
290
0
176
1
 90
1
176
1
 40
0.0
176
1
 90
0
176
1
290
0
176
1
290
1
176
1
290
1
176
1
290
0
176
1
290
0
176
1
290
0
176
1
290
0
176
1
290
0
176
1
290
0
176
1
 90
50
176
1
 40
0.0
176
1
 40
1.0
176
1
 90
0
176
1
 62
18
420
0
176
1
 90
50
176
1
 90
3
176
1
 62
5
420
255
176
1
290
0
176
1
 90
50
176
1
 90
50
176
1
 90
50
176
1
290
0
176
1
 90
50
176
1
 62
256
176
0
 40
1.0
176
0
 90
2
176
1
  1
strokes_ogs.tif
176
1
290
0
176
1
 40
1.0
176
1
 40
1.0
176
1
  0
VISUALSTYLE
  5
63
102
{ACAD_REACTORS
330
16
102
}
330
16
100
AcDbVisualStyle
  2
FlatWithEdges
 70
1
177
3
291
1
 70
58
 90
2
176
1
 90
2
176
1
 90
0
176
1
 90
2
176
1
 40
0.6
176
1
 40
30.0
176
1
 62
7
420
16777215
176
1
 90
1
176
1
 90
4
176
1
 62
7
176
1
 62
257
176
1
 90
1
176
1
 90
1
176
1
 40
1.0
176
1
 90
8
176
1
 62
7
176
1
 40
1.0
176
1
 90
1
176
1
 90
6
176
1
 90
2
176
1
 62
7
176
1
 90
5
176
1
 90
0
176
1
 90
0
176
1
290
0
176
1
 90
1
176
1
 40
0.0
176
1
 90
0
176
1
290
0
176
1
290
1
176
1
290
1
176
1
290
0
176
1
290
0
176
1
290
0
176
1
290
0
176
1
290
0
176
1
290
0
176
1
 90
50
176
1
 40
0.0
176
1
 40
1.0
176
1
 90
0
176
1
 62
18
420
0
176
1
 90
50
176
1
 90
3
176
1
 62
5
420
255
176
1
290
0
176
1
 90
50
176
1
 90
50
176
1
 90
50
176
1
290
0
176
1
 90
50
176
1
 62
256
176
0
 40
1.0
176
0
 90
2
176
1
  1
strokes_ogs.tif
176
1
290
0
176
1
 40
1.0
176
1
 40
1.0
176
1
  0
VISUALSTYLE
  5
64
102
{ACAD_REACTORS
330
16
102
}
330
16
100
AcDbVisualStyle
  2
Gouraud
 70
2
177
3
291
1
 70
58
 90
2
176
1
 90
2
176
1
 90
0
176
1
 90
2
176
1
 40
0.6
176
1
 40
30.0
176
1
 62
7
420
16777215
176
1
 90
1
176
1
 90
4
176
1
 62
7
176
1
 62
257
176
1
 90
1
176
1
 90
1
176
1
 40
1.0
176
1
 90
8
176
1
 62
7
176
1
 40
1.0
176
1
 90
1
176
1
 90
6
176
1
 90
2
176
1
 62
7
176
1
 90
5
176
1
 90
0
176
1
 90
0
176
1
290
0
176
1
 90
1
176
1
 40
0.0
176
1
 90
0
176
1
290
0
176
1
290
1
176
1
290
1
176
1
290
0
176
1
290
0
176
1
290
0
176
1
290
0
176
1
290
0
176
1
290
0
176
1
 90
50
176
1
 40
0.0
176
1
 40
1.0
176
1
 90
0
176
1
 62
18
420
0
176
1
 90
50
176
1
 90
3
176
1
 62
5
420
255
176
1
290
0
176
1
 90
50
176
1
 90
50
176
1
 90
50
176
1
290
0
176
1
 90
50
176
1
 62
256
176
0
 40
1.0
176
0
 90
2
176
1
  1
strokes_ogs.tif
176
1
290
0
176
1
 40
1.0
176
1
 40
1.0
176
1
  0
VISUALSTYLE
  5
65
102
{ACAD_REACTORS
330
16
102
}
330
16
100
AcDbVisualStyle
  2
GouraudWithEdges
 70
3
177
3
291
1
 70
58
 90
2
176
1
 90
2
176
1
 90
0
176
1
 90
2
176
1
 40
0.6
176
1
 40
30.0
176
1
 62
7
420
16777215
176
1
 90
1
176
1
 90
4
176
1
 62
7
176
1
 62
257
176
1
 90
1
176
1
 90
1
176
1
 40
1.0
176
1
 90
8
176
1
 62
7
176
1
 40
1.0
176
1
 90
1
176
1
 90
6
176
1
 90
2
176
1
 62
7
176
1
 90
5
176
1
 90
0
176
1
 90
0
176
1
290
0
176
1
 90
1
176
1
 40
0.0
176
1
 90
0
176
1
290
0
176
1
290
1
176
1
290
1
176
1
290
0
176
1
290
0
176
1
290
0
176
1
290
0
176
1
290
0
176
1
290
0
176
1
 90
50
176
1
 40
0.0
176
1
 40
1.0
176
1
 90
0
176
1
 62
18
420
0
176
1
 90
50
176
1
 90
3
176
1
 62
5
420
255
176
1
290
0
176
1
 90
50
176
1
 90
50
176
1
 90
50
176
1
290
0
176
1
 90
50
176
1
 62
256
176
0
 40
1.0
176
0
 90
2
176
1
  1
strokes_ogs.tif
176
1
290
0
176
1
 40
1.0
176
1
 40
1.0
176
1
  0
VISUALSTYLE
  5
66
102
{ACAD_REACTORS
330
16
102
}
330
16
100
AcDbVisualStyle
  2
Hidden
 70
6
177
3
291
0
 70
58
 90
2
176
1
 90
2
176
1
 90
0
176
1
 90
1
176
1
 40
0.6
176
1
 40
30.0
176
1
 62
7
420
16777215
176
1
 90
1
176
1
 90
4
176
1
 62
7
176
1
 62
257
176
1
 90
1
176
1
 90
1
176
1
 40
1.0
176
1
 90
8
176
1
 62
7
176
1
 40
1.0
176
1
 90
1
176
1
 90
6
176
1
 90
2
176
1
 62
7
176
1
 90
5
176
1
 90
0
176
1
 90
0
176
1
290
0
176
1
 90
1
176
1
 40
0.0
176
1
 90
0
176
1
290
0
176
1
290
1
176
1
290
1
176
1
290
0
176
1
290
0
176
1
290
0
176
1
290
0
176
1
290
0
176
1
290
0
176
1
 90
50
176
1
 40
0.0
176
1
 40
1.0
176
1
 90
0
176
1
 62
18
420
0
176
1
 90
50
176
1
 90
3
176
1
 62
5
420
255
176
1
290
0
176
1
 90
50
176
1
 90
50
176
1
 90
50
176
1
290
0
176
1
 90
50
176
1
 62
256
176
0
 40
1.0
176
0
 90
2
176
1
  1
strokes_ogs.tif
176
1
290
0
176
1
 40
1.0
176
1
 40
1.0
176
1
  0
VISUALSTYLE
  5
67
102
{ACAD_REACTORS
330
16
102
}
330
16
100
AcDbVisualStyle
  2
JitterOff
 70
20
177
3
291
1
 70
58
 90
2
176
1
 90
2
176
1
 90
0
176
1
 90
2
176
1
 40
0.6
176
1
 40
30.0
176
1
 62
7
420
16777215
176
1
 90
1
176
1
 90
4
176
1
 62
7
176
1
 62
257
176
1
 90
1
176
1
 90
1
176
1
 40
1.0
176
1
 90
8
176
1
 62
7
176
1
 40
1.0
176
1
 90
1
176
1
 90
6
176
1
 90
2
176
1
 62
7
176
1
 90
5
176
1
 90
0
176
1
 90
0
176
1
290
0
176
1
 90
1
176
1
 40
0.0
176
1
 90
0
176
1
290
0
176
1
290
1
176
1
290
1
176
1
290
0
176
1
290
0
176
1
290
0
176
1
290
0
176
1
290
0
176
1
290
0
176
1
 90
50
176
1
 40
0.0
176
1
 40
1.0
176
1
 90
0
176
1
 62
18
420
0
176
1
 90
50
176
1
 90
3
176
1
 62
5
420
255
176
1
290
0
176
1
 90
50
176
1
 90
50
176
1
 90
50
176
1
290
0
176
1
 90
50
176
1
 62
256
176
0
 40
1.0
176
0
 90
2
176
1
  1
strokes_ogs.tif
176
1
290
0
176
1
 40
1.0
176
1
 40
1.0
176
1
  0
VISUALSTYLE
  5
68
102
{ACAD_REACTORS
330
16
102
}
330
16
100
AcDbVisualStyle
  2
Linepattern
 70
14
177
3
291
1
 70
58
 90
2
176
1
 90
2
176
1
 90
0
176
1
 90
2
176
1
 40
0.6
176
1
 40
30.0
176
1
 62
7
420
16777215
176
1
 90
1
176
1
 90
4
176
1
 62
7
176
1
 62
257
176
1
 90
1
176
1
 90
1
176
1
 40
1.0
176
1
 90
8
176
1
 62
7
176
1
 40
1.0
176
1
 90
1
176
1
 90
6
176
1
 90
2
176
1
 62
7
176
1
 90
5
176
1
 90
0
176
1
 90
0
176
1
290
0
176
1
 90
1
176
1
 40
0.0
176
1
 90
0
176
1
290
0
176
1
290
1
176
1
290
1
176
1
290
0
176
1
290
0
176
1
290
0
176
1
290
0
176
1
290
0
176
1
290
0
176
1
 90
50
176
1
 40
0.0
176
1
 40
1.0
176
1
 90
0
176
1
 62
18
420
0
176
1
 90
50
176
1
 90
3
176
1
 62
5
420
255
176
1
290
0
176
1
 90
50
176
1
 90
50
176
1
 90
50
176
1
290
0
176
1
 90
50
176
1
 62
256
176
0
 40
1.0
176
0
 90
2
176
1
  1
strokes_ogs.tif
176
1
290
0
176
1
 40
1.0
176
1
 40
1.0
176
1
  0
VISUALSTYLE
  5
69
102
{ACAD_REACTORS
330
16
102
}
330
16
100
AcDbVisualStyle
  2
Modeling
 70
10
177
3
291
0
 70
58
 90
2
176
1
 90
2
176
1
 90
0
176
1
 90
2
176
1
 40
0.6
176
1
 40
30.0
176
1
 62
7
420
16777215
176
1
 90
1
176
1
 90
4
176
1
 62
7
176
1
 62
257
176
1
 90
1
176
1
 90
1
176
1
 40
1.0
176
1
 90
8
176
1
 62
7
176
1
 40
1.0
176
1
 90
1
176
1
 90
6
176
1
 90
2
176
1
 62
7
176
1
 90
5
176
1
 90
0
176
1
 90
0
176
1
290
0
176
1
 90
1
176
1
 40
0.0
176
1
 90
0
176
1
290
0
176
1
290
1
176
1
290
1
176
1
290
0
176
1
290
0
176
1
290
0
176
1
290
0
176
1
290
0
176
1
290
0
176
1
 90
50
176
1
 40
0.0
176
1
 40
1.0
176
1
 90
0
176
1
 62
18
420
0
176
1
 90
50
176
1
 90
3
176
1
 62
5
420
255
176
1
290
0
176
1
 90
50
176
1
 90
50
176
1
 90
50
176
1
290
0
176
1
 90
50
176
1
 62
256
176
0
 40
1.0
176
0
 90
2
176
1
  1
strokes_ogs.tif
176
1
290
0
176
1
 40
1.0
176
1
 40
1.0
176
1
  0
VISUALSTYLE
  5
6A
102
{ACAD_REACTORS
330
16
102
}
330
16
100
AcDbVisualStyle
  2
OverhangOff
 70
21
177
3
291
1
 70
58
 90
2
176
1
 90
2
176
1
 90
0
176
1
 90
2
176
1
 40
0.6
176
1
 40
30.0
176
1
 62
7
420
16777215
176
1
 90
1
176
1
 90
4
176
1
 62
7
176
1
 62
257
176
1
 90
1
176
1
 90
1
176
1
 40
1.0
176
1
 90
8
176
1
 62
7
176
1
 40
1.0
176
1
 90
1
176
1
 90
6
176
1
 90
2
176
1
 62
7
176
1
 90
5
176
1
 90
0
176
1
 90
0
176
1
290
0
176
1
 90
1
176
1
 40
0.0
176
1
 90
0
176
1
290
0
176
1
290
1
176
1
290
1
176
1
290
0
176
1
290
0
176
1
290
0
176
1
290
0
176
1
290
0
176
1
290
0
176
1
 90
50
176
1
 40
0.0
176
1
 40
1.0
176
1
 90
0
176
1
 62
18
420
0
176
1
 90
50
176
1
 90
3
176
1
 62
5
420
255
176
1
290
0
176
1
 90
50
176
1
 90
50
176
1
 90
50
176
1
290
0
176
1
 90
50
176
1
 62
256
176
0
 40
1.0
176
0
 90
2
176
1
  1
strokes_ogs.tif
176
1
290
0
176
1
 40
1.0
176
1
 40
1.0
176
1
  0
VISUALSTYLE
  5
6B
102
{ACAD_REACTORS
330
16
102
}
330
16
100
AcDbVisualStyle
  2
Realistic
 70
8
177
3
291
0
 70
58
 90
2
176
1
 90
2
176
1
 90
0
176
1
 90
2
176
1
 40
0.6
176
1
 40
30.0
176
1
 62
7
420
16777215
176
1
 90
1
176
1
 90
4
176
1
 62
7
176
1
 62
257
176
1
 90
1
176
1
 90
1
176
1
 40
1.0
176
1
 90
8
176
1
 62
7
176
1
 40
1.0
176
1
 90
1
176
1
 90
6
176
1
 90
2
176
1
 62
7
176
1
 90
5
176
1
 90
0
176
1
 90
0
176
1
290
0
176
1
 90
1
176
1
 40
0.0
176
1
 90
0
176
1
290
0
176
1
290
1
176
1
290
1
176
1
290
0
176
1
290
0
176
1
290
0
176
1
290
0
176
1
290
0
176
1
290
0
176
1
 90
50
176
1
 40
0.0
176
1
 40
1.0
176
1
 90
0
176
1
 62
18
420
0
176
1
 90
50
176
1
 90
3
176
1
 62
5
420
255
176
1
290
0
176
1
 90
50
176
1
 90
50
176
1
 90
50
176
1
290
0
176
1
 90
50
176
1
 62
256
176
0
 40
1.0
176
0
 90
2
176
1
  1
strokes_ogs.tif
176
1
290
0
176
1
 40
1.0
176
1
 40
1.0
176
1
  0
VISUALSTYLE
  5
6C
102
{ACAD_REACTORS
330
16
102
}
330
16
100
AcDbVisualStyle
  2
Shaded
 70
27
177
3
291
0
 70
58
 90
2
176
1
 90
2
176
1
 90
0
176
1
 90
2
176
1
 40
0.6
176
1
 40
30.0
176
1
 62
7
420
16777215
176
1
 90
1
176
1
 90
4
176
1
 62
7
176
1
 62
257
176
1
 90
1
176
1
 90
1
176
1
 40
1.0
176
1
 90
8
176
1
 62
7
176
1
 40
1.0
176
1
 90
1
176
1
 90
6
176
1
 90
2
176
1
 62
7
176
1
 90
5
176
1
 90
0
176
1
 90
0
176
1
290
0
176
1
 90
1
176
1
 40
0.0
176
1
 90
0
176
1
290
0
176
1
290
1
176
1
290
1
176
1
290
0
176
1
290
0
176
1
290
0
176
1
290
0
176
1
290
0
176
1
290
0
176
1
 90
50
176
1
 40
0.0
176
1
 40
1.0
176
1
 90
0
176
1
 62
18
420
0
176
1
 90
50
176
1
 90
3
176
1
 62
5
420
255
176
1
290
0
176
1
 90
50
176
1
 90
50
176
1
 90
50
176
1
290
0
176
1
 90
50
176
1
 62
256
176
0
 40
1.0
176
0
 90
2
176
1
  1
strokes_ogs.tif
176
1
290
0
176
1
 40
1.0
176
1
 40
1.0
176
1
  0
VISUALSTYLE
  5
6D
102
{ACAD_REACTORS
330
16
102
}
330
16
100
AcDbVisualStyle
  2
Shaded with edges
 70
26
177
3
291
0
 70
58
 90
2
176
1
 90
2
176
1
 90
0
176
1
 90
2
176
1
 40
0.6
176
1
 40
30.0
176
1
 62
7
420
16777215
176
1
 90
1
176
1
 90
4
176
1
 62
7
176
1
 62
257
176
1
 90
1
176
1
 90
1
176
1
 40
1.0
176
1
 90
8
176
1
 62
7
176
1
 40
1.0
176
1
 90
1
176
1
 90
6
176
1
 90
2
176
1
 62
7
176
1
 90
5
176
1
 90
0
176
1
 90
0
176
1
290
0
176
1
 90
1
176
1
 40
0.0
176
1
 90
0
176
1
290
0
176
1
290
1
176
1
290
1
176
1
290
0
176
1
290
0
176
1
290
0
176
1
290
0
176
1
290
0
176
1
290
0
176
1
 90
50
176
1
 40
0.0
176
1
 40
1.0
176
1
 90
0
176
1
 62
18
420
0
176
1
 90
50
176
1
 90
3
176
1
 62
5
420
255
176
1
290
0
176
1
 90
50
176
1
 90
50
176
1
 90
50
176
1
290
0
176
1
 90
50
176
1
 62
256
176
0
 40
1.0
176
0
 90
2
176
1
  1
strokes_ogs.tif
176
1
290
0
176
1
 40
1.0
176
1
 40
1.0
176
1
  0
VISUALSTYLE
  5
6E
102
{ACAD_REACTORS
330
16
102
}
330
16
100
AcDbVisualStyle
  2
Shades of Gray
 70
23
177
3
291
0
 70
58
 90
2
176
1
 90
2
176
1
 90
0
176
1
 90
2
176
1
 40
0.6
176
1
 40
30.0
176
1
 62
7
420
16777215
176
1
 90
1
176
1
 90
4
176
1
 62
7
176
1
 62
257
176
1
 90
1
176
1
 90
1
176
1
 40
1.0
176
1
 90
8
176
1
 62
7
176
1
 40
1.0
176
1
 90
1
176
1
 90
6
176
1
 90
2
176
1
 62
7
176
1
 90
5
176
1
 90
0
176
1
 90
0
176
1
290
0
176
1
 90
1
176
1
 40
0.0
176
1
 90
0
176
1
290
0
176
1
290
1
176
1
290
1
176
1
290
0
176
1
290
0
176
1
290
0
176
1
290
0
176
1
290
0
176
1
290
0
176
1
 90
50
176
1
 40
0.0
176
1
 40
1.0
176
1
 90
0
176
1
 62
18
420
0
176
1
 90
50
176
1
 90
3
176
1
 62
5
420
255
176
1
290
0
176
1
 90
50
176
1
 90
50
176
1
 90
50
176
1
290
0
176
1
 90
50
176
1
 62
256
176
0
 40
1.0
176
0
 90
2
176
1
  1
strokes_ogs.tif
176
1
290
0
176
1
 40
1.0
176
1
 40
1.0
176
1
  0
VISUALSTYLE
  5
6F
102
{ACAD_REACTORS
330
16
102
}
330
16
100
AcDbVisualStyle
  2
Sketchy
 70
24
177
3
291
0
 70
58
 90
2
176
1
 90
2
176
1
 90
0
176
1
 90
1
176
1
 40
0.6
176
1
 40
30.0
176
1
 62
7
420
16777215
176
1
 90
1
176
1
 90
4
176
1
 62
7
176
1
 62
257
176
1
 90
1
176
1
 90
1
176
1
 40
1.0
176
1
 90
8
176
1
 62
7
176
1
 40
1.0
176
1
 90
1
176
1
 90
6
176
1
 90
2
176
1
 62
7
176
1
 90
5
176
1
 90
0
176
1
 90
0
176
1
290
0
176
1
 90
1
176
1
 40
0.0
176
1
 90
0
176
1
290
0
176
1
290
1
176
1
290
1
176
1
290
0
176
1
290
0
176
1
290
0
176
1
290
0
176
1
290
0
176
1
290
0
176
1
 90
50
176
1
 40
0.0
176
1
 40
1.0
176
1
 90
0
176
1
 62
18
420
0
176
1
 90
50
176
1
 90
3
176
1
 62
5
420
255
176
1
290
0
176
1
 90
50
176
1
 90
50
176
1
 90
50
176
1
290
0
176
1
 90
50
176
1
 62
256
176
0
 40
1.0
176
0
 90
2
176
1
  1
strokes_ogs.tif
176
1
290
0
176
1
 40
1.0
176
1
 40
1.0
176
1
  0
VISUALSTYLE
  5
70
102
{ACAD_REACTORS
330
16
102
}
330
16
100
AcDbVisualStyle
  2
Thicken
 70
13
177
3
291
1
 70
58
 90
2
176
1
 90
2
176
1
 90
0
176
1
 90
2
176
1
 40
0.6
176
1
 40
30.0
176
1
 62
7
420
16777215
176
1
 90
1
176
1
 90
4
176
1
 62
7
176
1
 62
257
176
1
 90
1
176
1
 90
1
176
1
 40
1.0
176
1
 90
8
176
1
 62
7
176
1
 40
1.0
176
1
 90
1
176
1
 90
6
176
1
 90
2
176
1
 62
7
176
1
 90
5
176
1
 90
0
176
1
 90
0
176
1
290
0
176
1
 90
1
176
1
 40
0.0
176
1
 90
0
176
1
290
0
176
1
290
1
176
1
290
1
176
1
290
0
176
1
290
0
176
1
290
0
176
1
290
0
176
1
290
0
176
1
290
0
176
1
 90
50
176
1
 40
0.0
176
1
 40
1.0
176
1
 90
0
176
1
 62
18
420
0
176
1
 90
50
176
1
 90
3
176
1
 62
5
420
255
176
1
290
0
176
1
 90
50
176
1
 90
50
176
1
 90
50
176
1
290
0
176
1
 90
50
176
1
 62
256
176
0
 40
1.0
176
0
 90
2
176
1
  1
strokes_ogs.tif
176
1
290
0
176
1
 40
1.0
176
1
 40
1.0
176
1
  0
VISUALSTYLE
  5
71
102
{ACAD_REACTORS
330
16
102
}
330
16
100
AcDbVisualStyle
  2
Wireframe
 70
5
177
3
291
0
 70
58
 90
2
176
1
 90
2
176
1
 90
0
176
1
 90
0
176
1
 40
0.6
176
1
 40
30.0
176
1
 62
7
420
16777215
176
1
 90
1
176
1
 90
4
176
1
 62
7
176
1
 62
257
176
1
 90
1
176
1
 90
1
176
1
 40
1.0
176
1
 90
8
176
1
 62
7
176
1
 40
1.0
176
1
 90
1
176
1
 90
6
176
1
 90
2
176
1
 62
7
176
1
 90
5
176
1
 90
0
176
1
 90
0
176
1
290
0
176
1
 90
1
176
1
 40
0.0
176
1
 90
0
176
1
290
0
176
1
290
1
176
1
290
1
176
1
290
0
176
1
290
0
176
1
290
0
176
1
290
0
176
1
290
0
176
1
290
0
176
1
 90
50
176
1
 40
0.0
176
1
 40
1.0
176
1
 90
0
176
1
 62
18
420
0
176
1
 90
50
176
1
 90
3
176
1
 62
5
420
255
176
1
290
0
176
1
 90
50
176
1
 90
50
176
1
 90
50
176
1
290
0
176
1
 90
50
176
1
 62
256
176
0
 40
1.0
176
0
 90
2
176
1
  1
strokes_ogs.tif
176
1
290
0
176
1
 40
1.0
176
1
 40
1.0
176
1
  0
VISUALSTYLE
  5
72
102
{ACAD_REACTORS
330
16
102
}
330
16
100
AcDbVisualStyle
  2
X-Ray
 70
25
177
3
291
0
 70
58
 90
2
176
1
 90
2
176
1
 90
0
176
1
 90
2
176
1
 40
0.5
176
1
 40
30.0
176
1
 62
7
420
16777215
176
1
 90
1
176
1
 90
4
176
1
 62
7
176
1
 62
257
176
1
 90
1
176
1
 90
1
176
1
 40
1.0
176
1
 90
8
176
1
 62
7
176
1
 40
1.0
176
1
 90
1
176
1
 90
6
176
1
 90
2
176
1
 62
7
176
1
 90
5
176
1
 90
0
176
1
 90
0
176
1
290
0
176
1
 90
1
176
1
 40
0.0
176
1
 90
0
176
1
290
0
176
1
290
1
176
1
290
1
176
1
290
0
176
1
290
0
176
1
290
0
176
1
290
0
176
1
290
0
176
1
290
0
176
1
 90
50
176
1
 40
0.0
176
1
 40
1.0
176
1
 90
0
176
1
 62
18
420
0
176
1
 90
50
176
1
 90
3
176
1
 62
5
420
255
176
1
290
0
176
1
 90
50
176
1
 90
50
176
1
 90
50
176
1
290
0
176
1
 90
50
176
1
 62
256
176
0
 40
1.0
176
0
 90
2
176
1
  1
strokes_ogs.tif
176
1
290
0
176
1
 40
1.0
176
1
 40
1.0
176
1
  0
DICTIONARYVAR
  5
195
330
2D
100
DictionaryVariables
280
0
  1
1.4.4 @ 2026-09-02T19:28:24.179269+00:00
  0
ENDSEC
  0
EOF
